<svg width="848" height="848" viewBox="0 0 848 848" fill="none" xmlns="http://www.w3.org/2000/svg">
<g id="lambda 1">
<rect width="848" height="848" fill="white"/>
<g id="Module">
<g id="Module1">
<path id="Vector" d="M776.966 0H0V24.0469H776.966V0Z" fill="#774D4D"/>
</g>
<g id="Group">
<g id="Group_2">
<path id="Vector_2" d="M337.797 18.8963V5.66748H338.747L344.514 17.1324L350.28 5.66748H351.23V18.8963H350.229V7.77052L344.853 18.4723H344.157L338.798 7.80444V18.8963H337.797Z" fill="black"/>
</g>
<g id="Group_3">
<path id="Vector_3" d="M357.465 12.2775C357.465 11.3277 357.652 10.4289 358.008 9.59782C358.364 8.76677 358.856 8.05445 359.484 7.42693C360.111 6.79941 360.84 6.30757 361.688 5.95141C362.519 5.59525 363.418 5.40869 364.368 5.40869C365.318 5.40869 366.217 5.59525 367.048 5.95141C367.879 6.30757 368.608 6.79941 369.236 7.42693C369.863 8.05445 370.355 8.76677 370.711 9.59782C371.067 10.4289 371.254 11.3277 371.254 12.2775C371.254 13.2273 371.067 14.1261 370.711 14.9572C370.355 15.7882 369.863 16.5175 369.236 17.145C368.608 17.7556 367.879 18.2474 367.048 18.6036C366.217 18.9597 365.318 19.1463 364.368 19.1463C363.418 19.1463 362.519 18.9597 361.688 18.6036C360.84 18.2474 360.111 17.7556 359.484 17.145C358.856 16.5175 358.364 15.7882 358.008 14.9572C357.652 14.1261 357.465 13.2273 357.465 12.2775ZM358.483 12.2775C358.483 13.0916 358.636 13.8548 358.941 14.5671C359.263 15.2794 359.687 15.9069 360.213 16.4327C360.739 16.9585 361.366 17.3825 362.078 17.6877C362.791 17.993 363.554 18.1457 364.368 18.1457C365.165 18.1457 365.928 17.993 366.641 17.6877C367.353 17.3825 367.981 16.9585 368.506 16.4327C369.032 15.9069 369.456 15.2794 369.778 14.5671C370.084 13.8548 370.236 13.0916 370.236 12.2775C370.236 11.4804 370.084 10.7172 369.778 10.0049C369.456 9.29253 369.032 8.66501 368.506 8.13925C367.981 7.61349 367.353 7.18949 366.641 6.86725C365.928 6.56197 365.165 6.40933 364.368 6.40933C363.554 6.40933 362.791 6.56197 362.078 6.86725C361.366 7.18949 360.739 7.61349 360.213 8.13925C359.687 8.66501 359.263 9.29253 358.941 10.0049C358.636 10.7172 358.483 11.4804 358.483 12.2775Z" fill="black"/>
</g>
<g id="Group_4">
<path id="Vector_4" d="M377.496 5.66748H382.668C383.669 5.66748 384.568 5.83708 385.331 6.17628C386.094 6.53244 386.739 6.99036 387.265 7.58396C387.773 8.19452 388.163 8.88988 388.418 9.687C388.689 10.4841 388.825 11.3491 388.825 12.2819C388.825 13.2147 388.689 14.0796 388.418 14.8937C388.163 15.6908 387.773 16.3862 387.265 16.9798C386.739 17.5734 386.094 18.0483 385.331 18.3875C384.568 18.7267 383.669 18.8963 382.668 18.8963H377.496V5.66748ZM378.496 6.65116V17.9126H382.618C383.449 17.9126 384.195 17.76 384.839 17.4716C385.484 17.1833 386.026 16.7932 386.467 16.2844C386.908 15.7926 387.248 15.199 387.485 14.5036C387.706 13.8252 387.824 13.079 387.824 12.2819C387.824 11.4848 387.706 10.7385 387.485 10.0432C387.248 9.36476 386.908 8.77116 386.467 8.27932C386.026 7.77052 385.484 7.36348 384.839 7.07516C384.195 6.78684 383.449 6.65116 382.618 6.65116H378.496Z" fill="black"/>
</g>
<g id="Group_5">
<path id="Vector_5" d="M406.056 5.66748V13.8931C406.056 14.6393 405.937 15.3347 405.7 15.9791C405.462 16.6067 405.106 17.1663 404.648 17.6243C404.173 18.0991 403.596 18.4723 402.901 18.7436C402.206 19.015 401.409 19.1507 400.51 19.1507C399.611 19.1507 398.814 19.015 398.118 18.7436C397.423 18.4723 396.846 18.0991 396.388 17.6243C395.914 17.1663 395.557 16.6067 395.32 15.9791C395.083 15.3347 394.964 14.6393 394.964 13.8931V5.66748H395.964V13.8592C395.964 14.4867 396.066 15.0464 396.27 15.5721C396.456 16.0979 396.745 16.5558 397.135 16.9459C397.525 17.3359 398 17.6243 398.559 17.8447C399.119 18.0652 399.78 18.167 400.51 18.167C401.256 18.167 401.917 18.0652 402.477 17.8447C403.037 17.6243 403.512 17.3359 403.885 16.9459C404.275 16.5558 404.563 16.0979 404.767 15.5721C404.953 15.0464 405.055 14.4867 405.055 13.8592V5.66748H406.056Z" fill="black"/>
</g>
<g id="Group_6">
<path id="Vector_6" d="M413.053 5.66748H414.054V17.9126H421.703V18.8963H413.053V5.66748Z" fill="black"/>
</g>
<g id="Group_7">
<path id="Vector_7" d="M427.545 5.66748H436.636V6.65116H428.546V11.9257H435.432V12.8755H428.546V17.9126H436.636V18.8963H427.545V5.66748Z" fill="black"/>
</g>
</g>
</g>
<g id="ModuleBD">
<g id="Unit">
<path id="Vector_8" d="M186.571 32.3486H0V56.3955H186.571V32.3486Z" fill="#C77272"/>
</g>
<g id="Group_8">
<g id="Group_9">
<path id="Vector_9" d="M76.5137 38.0161V46.2417C76.5137 46.9879 76.395 47.6833 76.1576 48.3278C75.9201 48.9553 75.564 49.515 75.106 49.9729C74.6312 50.4478 74.0545 50.8209 73.3592 51.0923C72.6638 51.3636 71.8667 51.4993 70.9678 51.4993C70.0689 51.4993 69.2718 51.3636 68.5764 51.0923C67.8811 50.8209 67.3044 50.4478 66.8465 49.9729C66.3716 49.515 66.0155 48.9553 65.778 48.3278C65.5406 47.6833 65.4219 46.9879 65.4219 46.2417V38.0161H66.4225V46.2078C66.4225 46.8353 66.5243 47.395 66.7278 47.9207C66.9144 48.4465 67.2027 48.9044 67.5928 49.2945C67.9828 49.6846 68.4577 49.9729 69.0174 50.1934C69.5771 50.4139 70.2385 50.5156 70.9678 50.5156C71.714 50.5156 72.3755 50.4139 72.9352 50.1934C73.4948 49.9729 73.9697 49.6846 74.3428 49.2945C74.7329 48.9044 75.0212 48.4465 75.2248 47.9207C75.4113 47.395 75.5131 46.8353 75.5131 46.2078V38.0161H76.5137Z" fill="black"/>
</g>
<g id="Group_10">
<path id="Vector_10" d="M83.5112 51.2449V38.0161H84.4101L93.5685 49.5319V38.0161H94.5692V51.2449H93.6703L84.5119 39.746V51.2449H83.5112Z" fill="black"/>
</g>
<g id="Group_11">
<path id="Vector_11" d="M102.757 38.0161H101.756V51.2449H102.757V38.0161Z" fill="black"/>
</g>
<g id="Group_12">
<path id="Vector_12" d="M108.484 38.0161H119.033V38.9998H114.251V51.2449H113.25V38.9998H108.484V38.0161Z" fill="black"/>
</g>
</g>
<g id="Unit1">
<path id="Vector_13" d="M388.472 32.3486H186.561V56.3955H388.472V32.3486Z" fill="#C77272"/>
</g>
<g id="Group_13">
<g id="Group_14">
<path id="Vector_14" d="M270.735 38.0161V46.2417C270.735 46.9879 270.616 47.6833 270.379 48.3278C270.141 48.9553 269.785 49.515 269.327 49.9729C268.852 50.4478 268.276 50.8209 267.58 51.0923C266.885 51.3636 266.088 51.4993 265.189 51.4993C264.29 51.4993 263.493 51.3636 262.798 51.0923C262.102 50.8209 261.526 50.4478 261.068 49.9729C260.593 49.515 260.237 48.9553 259.999 48.3278C259.762 47.6833 259.643 46.9879 259.643 46.2417V38.0161H260.644V46.2078C260.644 46.8353 260.745 47.395 260.949 47.9207C261.136 48.4465 261.424 48.9044 261.814 49.2945C262.204 49.6846 262.679 49.9729 263.239 50.1934C263.798 50.4139 264.46 50.5156 265.189 50.5156C265.935 50.5156 266.597 50.4139 267.156 50.1934C267.716 49.9729 268.191 49.6846 268.564 49.2945C268.954 48.9044 269.242 48.4465 269.446 47.9207C269.633 47.395 269.734 46.8353 269.734 46.2078V38.0161H270.735Z" fill="black"/>
</g>
<g id="Group_15">
<path id="Vector_15" d="M277.732 51.2449V38.0161H278.631L287.79 49.5319V38.0161H288.79V51.2449H287.891L278.733 39.746V51.2449H277.732Z" fill="black"/>
</g>
<g id="Group_16">
<path id="Vector_16" d="M296.978 38.0161H295.977V51.2449H296.978V38.0161Z" fill="black"/>
</g>
<g id="Group_17">
<path id="Vector_17" d="M302.706 38.0161H313.255V38.9998H308.472V51.2449H307.471V38.9998H302.706V38.0161Z" fill="black"/>
</g>
</g>
<g id="Unit2">
<path id="Vector_18" d="M581.284 32.3486H388.494V56.3955H581.284V32.3486Z" fill="#C77272"/>
</g>
<g id="Group_18">
<g id="Group_19">
<path id="Vector_19" d="M468.087 38.0161V46.2417C468.087 46.9879 467.969 47.6833 467.731 48.3278C467.494 48.9553 467.138 49.515 466.68 49.9729C466.205 50.4478 465.628 50.8209 464.933 51.0923C464.238 51.3636 463.44 51.4993 462.542 51.4993C461.643 51.4993 460.846 51.3636 460.15 51.0923C459.455 50.8209 458.878 50.4478 458.42 49.9729C457.945 49.515 457.589 48.9553 457.352 48.3278C457.114 47.6833 456.996 46.9879 456.996 46.2417V38.0161H457.996V46.2078C457.996 46.8353 458.098 47.395 458.302 47.9207C458.488 48.4465 458.776 48.9044 459.166 49.2945C459.557 49.6846 460.031 49.9729 460.591 50.1934C461.151 50.4139 461.812 50.5156 462.542 50.5156C463.288 50.5156 463.949 50.4139 464.509 50.1934C465.069 49.9729 465.543 49.6846 465.917 49.2945C466.307 48.9044 466.595 48.4465 466.798 47.9207C466.985 47.395 467.087 46.8353 467.087 46.2078V38.0161H468.087Z" fill="black"/>
</g>
<g id="Group_20">
<path id="Vector_20" d="M475.085 51.2449V38.0161H475.984L485.142 49.5319V38.0161H486.143V51.2449H485.244L476.086 39.746V51.2449H475.085Z" fill="black"/>
</g>
<g id="Group_21">
<path id="Vector_21" d="M494.33 38.0161H493.33V51.2449H494.33V38.0161Z" fill="black"/>
</g>
<g id="Group_22">
<path id="Vector_22" d="M500.058 38.0161H510.607V38.9998H505.824V51.2449H504.824V38.9998H500.058V38.0161Z" fill="black"/>
</g>
</g>
<g id="Unit3">
<path id="Vector_23" d="M776.958 32.3486H581.266V56.3955H776.958V32.3486Z" fill="#914242"/>
</g>
<g id="Group_23">
<g id="Group_24">
<path id="Vector_24" d="M640.399 38.0161H646.369C647.014 38.0161 647.573 38.1009 648.065 38.3044C648.54 38.491 648.947 38.7284 649.269 39.0337C649.592 39.356 649.846 39.7121 650.016 40.1192C650.168 40.5432 650.253 40.9672 650.253 41.4251C650.253 42.1204 650.067 42.731 649.71 43.2737C649.354 43.8164 648.862 44.2235 648.252 44.4779C649.032 44.7153 649.66 45.1223 650.117 45.699C650.575 46.2926 650.796 46.954 650.796 47.7172C650.796 48.1921 650.711 48.65 650.525 49.074C650.338 49.498 650.084 49.8711 649.761 50.1934C649.422 50.5156 649.015 50.77 648.54 50.9566C648.065 51.1431 647.54 51.2449 646.946 51.2449H640.399V38.0161ZM641.4 44.9697V50.3121H646.861C647.319 50.3121 647.726 50.2443 648.082 50.0916C648.438 49.939 648.744 49.7524 648.998 49.498C649.253 49.2436 649.439 48.9553 649.575 48.6331C649.71 48.3108 649.778 47.9716 649.778 47.6155C649.778 47.2593 649.71 46.9371 649.575 46.6148C649.439 46.2926 649.253 46.0212 648.998 45.7668C648.744 45.5294 648.438 45.3428 648.082 45.1902C647.726 45.0375 647.319 44.9697 646.861 44.9697H641.4ZM641.4 38.9659V44.1217H646.59C646.997 44.1217 647.37 44.0539 647.692 43.9012C648.014 43.7655 648.286 43.579 648.523 43.3246C648.744 43.0871 648.93 42.8158 649.049 42.4935C649.168 42.1883 649.236 41.866 649.236 41.5268C649.236 41.1876 649.168 40.8654 649.049 40.5601C648.93 40.2548 648.744 39.9835 648.506 39.746C648.252 39.5086 647.947 39.322 647.59 39.1694C647.234 39.0337 646.81 38.9659 646.318 38.9659H641.4Z" fill="black"/>
</g>
<g id="Group_25">
<path id="Vector_25" d="M668.054 38.0161V46.2417C668.054 46.9879 667.935 47.6833 667.698 48.3278C667.46 48.9553 667.104 49.515 666.646 49.9729C666.171 50.4478 665.595 50.8209 664.899 51.0923C664.204 51.3636 663.407 51.4993 662.508 51.4993C661.609 51.4993 660.812 51.3636 660.117 51.0923C659.421 50.8209 658.845 50.4478 658.387 49.9729C657.912 49.515 657.556 48.9553 657.318 48.3278C657.081 47.6833 656.962 46.9879 656.962 46.2417V38.0161H657.963V46.2078C657.963 46.8353 658.064 47.395 658.268 47.9207C658.454 48.4465 658.743 48.9044 659.133 49.2945C659.523 49.6846 659.998 49.9729 660.557 50.1934C661.117 50.4139 661.779 50.5156 662.508 50.5156C663.254 50.5156 663.916 50.4139 664.475 50.1934C665.035 49.9729 665.51 49.6846 665.883 49.2945C666.273 48.9044 666.561 48.4465 666.765 47.9207C666.951 47.395 667.053 46.8353 667.053 46.2078V38.0161H668.054Z" fill="black"/>
</g>
<g id="Group_26">
<path id="Vector_26" d="M676.078 38.0161H675.077V51.2449H676.078V38.0161Z" fill="black"/>
</g>
<g id="Group_27">
<path id="Vector_27" d="M683.229 38.0161H684.23V50.2612H691.879V51.2449H683.229V38.0161Z" fill="black"/>
</g>
<g id="Group_28">
<path id="Vector_28" d="M697.747 38.0161H702.92C703.921 38.0161 704.819 38.1857 705.583 38.5249C706.346 38.8811 706.99 39.339 707.516 39.9326C708.025 40.5432 708.415 41.2385 708.669 42.0356C708.941 42.8327 709.076 43.6977 709.076 44.6305C709.076 45.5633 708.941 46.4283 708.669 47.2423C708.415 48.0395 708.025 48.7348 707.516 49.3284C706.99 49.922 706.346 50.3969 705.583 50.7361C704.819 51.0753 703.921 51.2449 702.92 51.2449H697.747V38.0161ZM698.748 38.9998V50.2612H702.869C703.7 50.2612 704.446 50.1086 705.091 49.8203C705.735 49.5319 706.278 49.1419 706.719 48.6331C707.16 48.1412 707.499 47.5476 707.737 46.8523C707.957 46.1739 708.076 45.4276 708.076 44.6305C708.076 43.8334 707.957 43.0871 707.737 42.3918C707.499 41.7134 707.16 41.1198 706.719 40.628C706.278 40.1192 705.735 39.7121 705.091 39.4238C704.446 39.1355 703.7 38.9998 702.869 38.9998H698.748Z" fill="black"/>
</g>
</g>
</g>
<g id="UnitBD">
<g id="Unit4">
<path id="Vector_29" d="M186.571 121.062H0V145.108H186.571V121.062Z" fill="#A76672"/>
</g>
<g id="Unit5">
<path id="Vector_30" d="M186.571 349.935H0V373.982H186.571V349.935Z" fill="#914242"/>
</g>
<g id="Unit6">
<path id="Vector_31" d="M186.571 177.038H0V201.085H186.571V177.038Z" fill="#A76672"/>
</g>
<g id="Add">
<path id="Vector_32" fill-rule="evenodd" clip-rule="evenodd" d="M81.6221 160.06H92.1537V149.528H94.4105V160.06H104.942V162.317H94.4105V172.848H92.1537V162.317H81.6221V160.06Z" fill="#7F1919"/>
</g>
<g id="Unit7">
<path id="Vector_33" d="M186.571 232.211H0V256.258H186.571V232.211Z" fill="#A76672"/>
</g>
<g id="Add1">
<path id="Vector_34" fill-rule="evenodd" clip-rule="evenodd" d="M81.6221 215.467H92.1537V204.935H94.4105V215.467H104.942V217.723H94.4105V228.255H92.1537V217.723H81.6221V215.467Z" fill="#7F1919"/>
</g>
<g id="Unit8">
<path id="Vector_35" d="M186.571 290.491H0V314.538H186.571V290.491Z" fill="#A76672"/>
</g>
<g id="Add2">
<path id="Vector_36" fill-rule="evenodd" clip-rule="evenodd" d="M81.6221 271.986H92.1537V261.455H94.4105V271.986H104.942V274.243H94.4105V284.775H92.1537V274.243H81.6221V271.986Z" fill="#7F1919"/>
</g>
<g id="Add3">
<path id="Vector_37" fill-rule="evenodd" clip-rule="evenodd" d="M81.6221 330.783H92.1537V320.251H94.4105V330.783H104.942V333.04H94.4105V343.571H92.1537V333.04H81.6221V330.783Z" fill="#7F1919"/>
</g>
<g id="Forward  small">
<path id="Vector_38" d="M93.279 101.347L104.939 89.4748H98.049V74.6348H88.509V89.4748H81.619L93.279 101.347Z" fill="#7F1919"/>
</g>
<g id="Group_29">
<g id="Group_30">
<path id="Vector_39" d="M45.4434 126.729H46.444V138.974H54.093V139.958H45.4434V126.729Z" fill="black"/>
</g>
<g id="Group_31">
<path id="Vector_40" d="M59.9355 126.729H69.0261V127.713H60.9362V132.987H67.8219V133.937H60.9362V138.974H69.0261V139.958H59.9355V126.729Z" fill="black"/>
</g>
<g id="Group_32">
<path id="Vector_41" d="M75.4632 136.646V136.714C75.4632 137.087 75.5649 137.426 75.7515 137.732C75.9381 138.054 76.2264 138.325 76.5825 138.546C76.9387 138.766 77.3797 138.953 77.8884 139.088C78.3972 139.207 78.9739 139.275 79.6184 139.275C80.8564 139.275 81.7892 139.038 82.4337 138.58C83.0782 138.122 83.4004 137.528 83.4004 136.816C83.4004 136.392 83.2987 136.019 83.0782 135.713C82.8577 135.408 82.5524 135.137 82.1793 134.916C81.8062 134.696 81.3652 134.492 80.8734 134.306C80.3816 134.136 79.8558 133.967 79.2961 133.797C78.7534 133.627 78.2107 133.441 77.651 133.237C77.0913 133.051 76.5995 132.796 76.1416 132.508C75.6837 132.22 75.3105 131.863 75.0222 131.456C74.7339 131.032 74.5813 130.524 74.5813 129.93C74.5813 129.404 74.683 128.929 74.9205 128.505C75.1409 128.081 75.4462 127.725 75.8533 127.42C76.2603 127.115 76.7521 126.877 77.3457 126.708C77.9224 126.555 78.5668 126.47 79.2792 126.47C80.0084 126.47 80.6699 126.555 81.2804 126.725C81.891 126.894 82.4168 127.132 82.8577 127.437C83.2817 127.742 83.6209 128.098 83.8753 128.522C84.1128 128.946 84.2315 129.404 84.2315 129.896V130.049H83.2478V129.964C83.2478 129.591 83.163 129.252 82.9764 128.929C82.7899 128.624 82.5355 128.353 82.1963 128.132C81.8401 127.912 81.4331 127.725 80.9412 127.59C80.4324 127.471 79.8897 127.403 79.2792 127.403C78.092 127.403 77.1931 127.64 76.5656 128.098C75.9381 128.556 75.6328 129.15 75.6328 129.862C75.6328 130.286 75.7345 130.659 75.955 130.948C76.1585 131.236 76.4469 131.507 76.803 131.728C77.1592 131.948 77.5832 132.152 78.0581 132.321C78.5329 132.491 79.0417 132.661 79.5844 132.83C80.1102 132.983 80.6699 133.169 81.2465 133.356C81.8232 133.56 82.3489 133.814 82.8238 134.119C83.2987 134.408 83.6888 134.764 84.011 135.188C84.3163 135.612 84.4689 136.137 84.4689 136.765C84.4689 137.291 84.3502 137.749 84.1128 138.173C83.8923 138.597 83.57 138.97 83.146 139.258C82.722 139.563 82.2132 139.801 81.6196 139.953C81.026 140.123 80.3476 140.208 79.6184 140.208C78.8552 140.208 78.1768 140.123 77.5323 139.953C76.9217 139.784 76.379 139.546 75.9211 139.241C75.4632 138.936 75.124 138.58 74.8696 138.156C74.6152 137.732 74.4795 137.274 74.4795 136.782V136.646H75.4632Z" fill="black"/>
</g>
<g id="Group_33">
<path id="Vector_42" d="M90.7835 136.646V136.714C90.7835 137.087 90.8852 137.426 91.0718 137.732C91.2584 138.054 91.5467 138.325 91.9028 138.546C92.259 138.766 92.7 138.953 93.2088 139.088C93.7176 139.207 94.2942 139.275 94.9387 139.275C96.1768 139.275 97.1096 139.038 97.754 138.58C98.3985 138.122 98.7208 137.528 98.7208 136.816C98.7208 136.392 98.619 136.019 98.3985 135.713C98.178 135.408 97.8728 135.137 97.4996 134.916C97.1265 134.696 96.6856 134.492 96.1937 134.306C95.7019 134.136 95.1761 133.967 94.6164 133.797C94.0737 133.627 93.531 133.441 92.9713 133.237C92.4116 133.051 91.9198 132.796 91.4619 132.508C91.004 132.22 90.6308 131.863 90.3425 131.456C90.0542 131.032 89.9016 130.524 89.9016 129.93C89.9016 129.404 90.0033 128.929 90.2408 128.505C90.4612 128.081 90.7665 127.725 91.1736 127.42C91.5806 127.115 92.0724 126.877 92.666 126.708C93.2427 126.555 93.8872 126.47 94.5995 126.47C95.3288 126.47 95.9902 126.555 96.6008 126.725C97.2113 126.894 97.7371 127.132 98.178 127.437C98.602 127.742 98.9412 128.098 99.1956 128.522C99.4331 128.946 99.5518 129.404 99.5518 129.896V130.049H98.5681V129.964C98.5681 129.591 98.4833 129.252 98.2968 128.929C98.1102 128.624 97.8558 128.353 97.5166 128.132C97.1604 127.912 96.7534 127.725 96.2616 127.59C95.7528 127.471 95.21 127.403 94.5995 127.403C93.4123 127.403 92.5134 127.64 91.8859 128.098C91.2584 128.556 90.9531 129.15 90.9531 129.862C90.9531 130.286 91.0548 130.659 91.2753 130.948C91.4788 131.236 91.7672 131.507 92.1233 131.728C92.4795 131.948 92.9035 132.152 93.3784 132.321C93.8532 132.491 94.362 132.661 94.9048 132.83C95.4305 132.983 95.9902 133.169 96.5668 133.356C97.1435 133.56 97.6692 133.814 98.1441 134.119C98.619 134.408 99.0091 134.764 99.3313 135.188C99.6366 135.612 99.7892 136.137 99.7892 136.765C99.7892 137.291 99.6705 137.749 99.4331 138.173C99.2126 138.597 98.8904 138.97 98.4664 139.258C98.0424 139.563 97.5336 139.801 96.94 139.953C96.3464 140.123 95.668 140.208 94.9387 140.208C94.1755 140.208 93.4971 140.123 92.8526 139.953C92.242 139.784 91.6993 139.546 91.2414 139.241C90.7835 138.936 90.4443 138.58 90.1899 138.156C89.9355 137.732 89.7998 137.274 89.7998 136.782V136.646H90.7835Z" fill="black"/>
</g>
<g id="Group_34">
<path id="Vector_43" d="M105.094 133.339C105.094 132.389 105.281 131.49 105.637 130.659C105.993 129.828 106.485 129.116 107.112 128.488C107.74 127.861 108.469 127.369 109.317 127.013C110.148 126.657 111.047 126.47 111.997 126.47C112.947 126.47 113.846 126.657 114.677 127.013C115.508 127.369 116.237 127.861 116.864 128.488C117.492 129.116 117.984 129.828 118.34 130.659C118.696 131.49 118.883 132.389 118.883 133.339C118.883 134.289 118.696 135.188 118.34 136.019C117.984 136.85 117.492 137.579 116.864 138.207C116.237 138.817 115.508 139.309 114.677 139.665C113.846 140.021 112.947 140.208 111.997 140.208C111.047 140.208 110.148 140.021 109.317 139.665C108.469 139.309 107.74 138.817 107.112 138.207C106.485 137.579 105.993 136.85 105.637 136.019C105.281 135.188 105.094 134.289 105.094 133.339ZM106.112 133.339C106.112 134.153 106.264 134.916 106.57 135.629C106.892 136.341 107.316 136.968 107.842 137.494C108.368 138.02 108.995 138.444 109.707 138.749C110.42 139.055 111.183 139.207 111.997 139.207C112.794 139.207 113.557 139.055 114.27 138.749C114.982 138.444 115.609 138.02 116.135 137.494C116.661 136.968 117.085 136.341 117.407 135.629C117.712 134.916 117.865 134.153 117.865 133.339C117.865 132.542 117.712 131.779 117.407 131.066C117.085 130.354 116.661 129.727 116.135 129.201C115.609 128.675 114.982 128.251 114.27 127.929C113.557 127.623 112.794 127.471 111.997 127.471C111.183 127.471 110.42 127.623 109.707 127.929C108.995 128.251 108.368 128.675 107.842 129.201C107.316 129.727 106.892 130.354 106.57 131.066C106.264 131.779 106.112 132.542 106.112 133.339Z" fill="black"/>
</g>
<g id="Group_35">
<path id="Vector_44" d="M125.125 139.958V126.729H126.023L135.182 138.245V126.729H136.182V139.958H135.284L126.125 128.459V139.958H125.125Z" fill="black"/>
</g>
</g>
<g id="Group_36">
<g id="Group_37">
<path id="Vector_45" d="M45.4434 183.041H46.444V195.287H54.093V196.27H45.4434V183.041Z" fill="black"/>
</g>
<g id="Group_38">
<path id="Vector_46" d="M59.9355 183.041H69.0261V184.025H60.9362V189.3H67.8219V190.249H60.9362V195.287H69.0261V196.27H59.9355V183.041Z" fill="black"/>
</g>
<g id="Group_39">
<path id="Vector_47" d="M75.4632 192.959V193.027C75.4632 193.4 75.5649 193.739 75.7515 194.044C75.9381 194.366 76.2264 194.638 76.5825 194.858C76.9387 195.079 77.3797 195.265 77.8884 195.401C78.3972 195.52 78.9739 195.587 79.6184 195.587C80.8564 195.587 81.7892 195.35 82.4337 194.892C83.0782 194.434 83.4004 193.841 83.4004 193.128C83.4004 192.704 83.2987 192.331 83.0782 192.026C82.8577 191.721 82.5524 191.449 82.1793 191.229C81.8062 191.008 81.3652 190.805 80.8734 190.618C80.3816 190.449 79.8558 190.279 79.2961 190.109C78.7534 189.94 78.2107 189.753 77.651 189.55C77.0913 189.363 76.5995 189.109 76.1416 188.82C75.6837 188.532 75.3105 188.176 75.0222 187.769C74.7339 187.345 74.5813 186.836 74.5813 186.243C74.5813 185.717 74.683 185.242 74.9205 184.818C75.1409 184.394 75.4462 184.038 75.8533 183.732C76.2603 183.427 76.7521 183.19 77.3457 183.02C77.9224 182.867 78.5668 182.783 79.2792 182.783C80.0084 182.783 80.6699 182.867 81.2804 183.037C81.891 183.207 82.4168 183.444 82.8577 183.749C83.2817 184.055 83.6209 184.411 83.8753 184.835C84.1128 185.259 84.2315 185.717 84.2315 186.209V186.361H83.2478V186.276C83.2478 185.903 83.163 185.564 82.9764 185.242C82.7899 184.937 82.5355 184.665 82.1963 184.445C81.8401 184.224 81.4331 184.038 80.9412 183.902C80.4324 183.783 79.8897 183.715 79.2792 183.715C78.092 183.715 77.1931 183.953 76.5656 184.411C75.9381 184.869 75.6328 185.462 75.6328 186.175C75.6328 186.599 75.7345 186.972 75.955 187.26C76.1585 187.548 76.4469 187.82 76.803 188.04C77.1592 188.261 77.5832 188.464 78.0581 188.634C78.5329 188.803 79.0417 188.973 79.5844 189.143C80.1102 189.295 80.6699 189.482 81.2465 189.668C81.8232 189.872 82.3489 190.126 82.8238 190.432C83.2987 190.72 83.6888 191.076 84.011 191.5C84.3163 191.924 84.4689 192.45 84.4689 193.077C84.4689 193.603 84.3502 194.061 84.1128 194.485C83.8923 194.909 83.57 195.282 83.146 195.571C82.722 195.876 82.2132 196.113 81.6196 196.266C81.026 196.435 80.3476 196.52 79.6184 196.52C78.8552 196.52 78.1768 196.435 77.5323 196.266C76.9217 196.096 76.379 195.859 75.9211 195.554C75.4632 195.248 75.124 194.892 74.8696 194.468C74.6152 194.044 74.4795 193.586 74.4795 193.094V192.959H75.4632Z" fill="black"/>
</g>
<g id="Group_40">
<path id="Vector_48" d="M90.7835 192.959V193.027C90.7835 193.4 90.8852 193.739 91.0718 194.044C91.2584 194.366 91.5467 194.638 91.9028 194.858C92.259 195.079 92.7 195.265 93.2088 195.401C93.7176 195.52 94.2942 195.587 94.9387 195.587C96.1768 195.587 97.1096 195.35 97.754 194.892C98.3985 194.434 98.7208 193.841 98.7208 193.128C98.7208 192.704 98.619 192.331 98.3985 192.026C98.178 191.721 97.8728 191.449 97.4996 191.229C97.1265 191.008 96.6856 190.805 96.1937 190.618C95.7019 190.449 95.1761 190.279 94.6164 190.109C94.0737 189.94 93.531 189.753 92.9713 189.55C92.4116 189.363 91.9198 189.109 91.4619 188.82C91.004 188.532 90.6308 188.176 90.3425 187.769C90.0542 187.345 89.9016 186.836 89.9016 186.243C89.9016 185.717 90.0033 185.242 90.2408 184.818C90.4612 184.394 90.7665 184.038 91.1736 183.732C91.5806 183.427 92.0724 183.19 92.666 183.02C93.2427 182.867 93.8872 182.783 94.5995 182.783C95.3288 182.783 95.9902 182.867 96.6008 183.037C97.2113 183.207 97.7371 183.444 98.178 183.749C98.602 184.055 98.9412 184.411 99.1956 184.835C99.4331 185.259 99.5518 185.717 99.5518 186.209V186.361H98.5681V186.276C98.5681 185.903 98.4833 185.564 98.2968 185.242C98.1102 184.937 97.8558 184.665 97.5166 184.445C97.1604 184.224 96.7534 184.038 96.2616 183.902C95.7528 183.783 95.21 183.715 94.5995 183.715C93.4123 183.715 92.5134 183.953 91.8859 184.411C91.2584 184.869 90.9531 185.462 90.9531 186.175C90.9531 186.599 91.0548 186.972 91.2753 187.26C91.4788 187.548 91.7672 187.82 92.1233 188.04C92.4795 188.261 92.9035 188.464 93.3784 188.634C93.8532 188.803 94.362 188.973 94.9048 189.143C95.4305 189.295 95.9902 189.482 96.5668 189.668C97.1435 189.872 97.6692 190.126 98.1441 190.432C98.619 190.72 99.0091 191.076 99.3313 191.5C99.6366 191.924 99.7892 192.45 99.7892 193.077C99.7892 193.603 99.6705 194.061 99.4331 194.485C99.2126 194.909 98.8904 195.282 98.4664 195.571C98.0424 195.876 97.5336 196.113 96.94 196.266C96.3464 196.435 95.668 196.52 94.9387 196.52C94.1755 196.52 93.4971 196.435 92.8526 196.266C92.242 196.096 91.6993 195.859 91.2414 195.554C90.7835 195.248 90.4443 194.892 90.1899 194.468C89.9355 194.044 89.7998 193.586 89.7998 193.094V192.959H90.7835Z" fill="black"/>
</g>
<g id="Group_41">
<path id="Vector_49" d="M105.094 189.651C105.094 188.702 105.281 187.803 105.637 186.972C105.993 186.141 106.485 185.428 107.112 184.801C107.74 184.173 108.469 183.682 109.317 183.325C110.148 182.969 111.047 182.783 111.997 182.783C112.947 182.783 113.846 182.969 114.677 183.325C115.508 183.682 116.237 184.173 116.864 184.801C117.492 185.428 117.984 186.141 118.34 186.972C118.696 187.803 118.883 188.702 118.883 189.651C118.883 190.601 118.696 191.5 118.34 192.331C117.984 193.162 117.492 193.891 116.864 194.519C116.237 195.13 115.508 195.621 114.677 195.978C113.846 196.334 112.947 196.52 111.997 196.52C111.047 196.52 110.148 196.334 109.317 195.978C108.469 195.621 107.74 195.13 107.112 194.519C106.485 193.891 105.993 193.162 105.637 192.331C105.281 191.5 105.094 190.601 105.094 189.651ZM106.112 189.651C106.112 190.466 106.264 191.229 106.57 191.941C106.892 192.653 107.316 193.281 107.842 193.807C108.368 194.332 108.995 194.756 109.707 195.062C110.42 195.367 111.183 195.52 111.997 195.52C112.794 195.52 113.557 195.367 114.27 195.062C114.982 194.756 115.609 194.332 116.135 193.807C116.661 193.281 117.085 192.653 117.407 191.941C117.712 191.229 117.865 190.466 117.865 189.651C117.865 188.854 117.712 188.091 117.407 187.379C117.085 186.667 116.661 186.039 116.135 185.513C115.609 184.987 114.982 184.563 114.27 184.241C113.557 183.936 112.794 183.783 111.997 183.783C111.183 183.783 110.42 183.936 109.707 184.241C108.995 184.563 108.368 184.987 107.842 185.513C107.316 186.039 106.892 186.667 106.57 187.379C106.264 188.091 106.112 188.854 106.112 189.651Z" fill="black"/>
</g>
<g id="Group_42">
<path id="Vector_50" d="M125.125 196.27V183.041H126.023L135.182 194.557V183.041H136.182V196.27H135.284L126.125 184.771V196.27H125.125Z" fill="black"/>
</g>
</g>
<g id="Group_43">
<g id="Group_44">
<path id="Vector_51" d="M46.2197 237.75H47.2204V249.995H54.8693V250.978H46.2197V237.75Z" fill="black"/>
</g>
<g id="Group_45">
<path id="Vector_52" d="M60.7119 237.75H69.8025V238.733H61.7126V244.008H68.5983V244.958H61.7126V249.995H69.8025V250.978H60.7119V237.75Z" fill="black"/>
</g>
<g id="Group_46">
<path id="Vector_53" d="M76.2395 247.667V247.735C76.2395 248.108 76.3413 248.447 76.5279 248.752C76.7144 249.074 77.0027 249.346 77.3589 249.566C77.7151 249.787 78.156 249.973 78.6648 250.109C79.1736 250.228 79.7503 250.296 80.3947 250.296C81.6328 250.296 82.5656 250.058 83.2101 249.6C83.8546 249.142 84.1768 248.549 84.1768 247.836C84.1768 247.412 84.0751 247.039 83.8546 246.734C83.6341 246.429 83.3288 246.157 82.9557 245.937C82.5826 245.716 82.1416 245.513 81.6498 245.326C81.1579 245.157 80.6322 244.987 80.0725 244.817C79.5298 244.648 78.9871 244.461 78.4274 244.258C77.8677 244.071 77.3759 243.817 76.9179 243.528C76.46 243.24 76.0869 242.884 75.7986 242.477C75.5103 242.053 75.3576 241.544 75.3576 240.951C75.3576 240.425 75.4594 239.95 75.6968 239.526C75.9173 239.102 76.2226 238.746 76.6296 238.44C77.0367 238.135 77.5285 237.898 78.1221 237.728C78.6987 237.576 79.3432 237.491 80.0555 237.491C80.7848 237.491 81.4463 237.576 82.0568 237.745C82.6674 237.915 83.1931 238.152 83.6341 238.457C84.0581 238.763 84.3973 239.119 84.6517 239.543C84.8891 239.967 85.0079 240.425 85.0079 240.917V241.069H84.0242V240.984C84.0242 240.611 83.9394 240.272 83.7528 239.95C83.5663 239.645 83.3119 239.373 82.9727 239.153C82.6165 238.932 82.2095 238.746 81.7176 238.61C81.2088 238.491 80.6661 238.424 80.0555 238.424C78.8683 238.424 77.9695 238.661 77.3419 239.119C76.7144 239.577 76.4091 240.17 76.4091 240.883C76.4091 241.307 76.5109 241.68 76.7314 241.968C76.9349 242.256 77.2232 242.528 77.5794 242.748C77.9355 242.969 78.3595 243.172 78.8344 243.342C79.3093 243.512 79.8181 243.681 80.3608 243.851C80.8866 244.003 81.4463 244.19 82.0229 244.376C82.5995 244.58 83.1253 244.834 83.6002 245.14C84.0751 245.428 84.4651 245.784 84.7874 246.208C85.0927 246.632 85.2453 247.158 85.2453 247.785C85.2453 248.311 85.1266 248.769 84.8891 249.193C84.6687 249.617 84.3464 249.99 83.9224 250.279C83.4984 250.584 82.9896 250.821 82.396 250.974C81.8024 251.144 81.124 251.228 80.3947 251.228C79.6315 251.228 78.9531 251.144 78.3087 250.974C77.6981 250.804 77.1554 250.567 76.6975 250.262C76.2395 249.956 75.9003 249.6 75.6459 249.176C75.3915 248.752 75.2559 248.294 75.2559 247.802V247.667H76.2395Z" fill="black"/>
</g>
<g id="Group_47">
<path id="Vector_54" d="M91.5599 247.667V247.735C91.5599 248.108 91.6616 248.447 91.8482 248.752C92.0347 249.074 92.3231 249.346 92.6792 249.566C93.0354 249.787 93.4763 249.973 93.9851 250.109C94.4939 250.228 95.0706 250.296 95.7151 250.296C96.9531 250.296 97.8859 250.058 98.5304 249.6C99.1749 249.142 99.4971 248.549 99.4971 247.836C99.4971 247.412 99.3954 247.039 99.1749 246.734C98.9544 246.429 98.6491 246.157 98.276 245.937C97.9029 245.716 97.4619 245.513 96.9701 245.326C96.4783 245.157 95.9525 244.987 95.3928 244.817C94.8501 244.648 94.3074 244.461 93.7477 244.258C93.188 244.071 92.6962 243.817 92.2383 243.528C91.7803 243.24 91.4072 242.884 91.1189 242.477C90.8306 242.053 90.6779 241.544 90.6779 240.951C90.6779 240.425 90.7797 239.95 91.0171 239.526C91.2376 239.102 91.5429 238.746 91.9499 238.44C92.357 238.135 92.8488 237.898 93.4424 237.728C94.0191 237.576 94.6635 237.491 95.3759 237.491C96.1051 237.491 96.7666 237.576 97.3771 237.745C97.9877 237.915 98.5135 238.152 98.9544 238.457C99.3784 238.763 99.7176 239.119 99.972 239.543C100.209 239.967 100.328 240.425 100.328 240.917V241.069H99.3445V240.984C99.3445 240.611 99.2597 240.272 99.0731 239.95C98.8866 239.645 98.6322 239.373 98.293 239.153C97.9368 238.932 97.5298 238.746 97.0379 238.61C96.5291 238.491 95.9864 238.424 95.3759 238.424C94.1887 238.424 93.2898 238.661 92.6623 239.119C92.0347 239.577 91.7295 240.17 91.7295 240.883C91.7295 241.307 91.8312 241.68 92.0517 241.968C92.2552 242.256 92.5435 242.528 92.8997 242.748C93.2559 242.969 93.6799 243.172 94.1547 243.342C94.6296 243.512 95.1384 243.681 95.6811 243.851C96.2069 244.003 96.7666 244.19 97.3432 244.376C97.9199 244.58 98.4456 244.834 98.9205 245.14C99.3954 245.428 99.7855 245.784 100.108 246.208C100.413 246.632 100.566 247.158 100.566 247.785C100.566 248.311 100.447 248.769 100.209 249.193C99.989 249.617 99.6667 249.99 99.2427 250.279C98.8187 250.584 98.3099 250.821 97.7163 250.974C97.1227 251.144 96.4443 251.228 95.7151 251.228C94.9519 251.228 94.2735 251.144 93.629 250.974C93.0184 250.804 92.4757 250.567 92.0178 250.262C91.5599 249.956 91.2207 249.6 90.9663 249.176C90.7119 248.752 90.5762 248.294 90.5762 247.802V247.667H91.5599Z" fill="black"/>
</g>
<g id="Group_48">
<path id="Vector_55" d="M105.871 244.36C105.871 243.41 106.057 242.511 106.413 241.68C106.769 240.849 107.261 240.136 107.889 239.509C108.516 238.881 109.246 238.39 110.094 238.033C110.925 237.677 111.824 237.491 112.773 237.491C113.723 237.491 114.622 237.677 115.453 238.033C116.284 238.39 117.013 238.881 117.641 239.509C118.268 240.136 118.76 240.849 119.116 241.68C119.473 242.511 119.659 243.41 119.659 244.36C119.659 245.309 119.473 246.208 119.116 247.039C118.76 247.87 118.268 248.6 117.641 249.227C117.013 249.838 116.284 250.329 115.453 250.686C114.622 251.042 113.723 251.228 112.773 251.228C111.824 251.228 110.925 251.042 110.094 250.686C109.246 250.329 108.516 249.838 107.889 249.227C107.261 248.6 106.769 247.87 106.413 247.039C106.057 246.208 105.871 245.309 105.871 244.36ZM106.888 244.36C106.888 245.174 107.041 245.937 107.346 246.649C107.668 247.361 108.092 247.989 108.618 248.515C109.144 249.04 109.771 249.464 110.484 249.77C111.196 250.075 111.959 250.228 112.773 250.228C113.57 250.228 114.334 250.075 115.046 249.77C115.758 249.464 116.386 249.04 116.912 248.515C117.437 247.989 117.861 247.361 118.184 246.649C118.489 245.937 118.641 245.174 118.641 244.36C118.641 243.562 118.489 242.799 118.184 242.087C117.861 241.375 117.437 240.747 116.912 240.221C116.386 239.696 115.758 239.272 115.046 238.949C114.334 238.644 113.57 238.491 112.773 238.491C111.959 238.491 111.196 238.644 110.484 238.949C109.771 239.272 109.144 239.696 108.618 240.221C108.092 240.747 107.668 241.375 107.346 242.087C107.041 242.799 106.888 243.562 106.888 244.36Z" fill="black"/>
</g>
<g id="Group_49">
<path id="Vector_56" d="M125.901 250.978V237.75H126.8L135.958 249.265V237.75H136.959V250.978H136.06L126.902 239.479V250.978H125.901Z" fill="black"/>
</g>
</g>
<g id="Group_50">
<g id="Group_51">
<path id="Vector_57" d="M45.4434 296.391H46.444V308.636H54.093V309.62H45.4434V296.391Z" fill="black"/>
</g>
<g id="Group_52">
<path id="Vector_58" d="M59.9355 296.391H69.0261V297.375H60.9362V302.649H67.8219V303.599H60.9362V308.636H69.0261V309.62H59.9355V296.391Z" fill="black"/>
</g>
<g id="Group_53">
<path id="Vector_59" d="M75.4632 306.308V306.376C75.4632 306.749 75.5649 307.088 75.7515 307.394C75.9381 307.716 76.2264 307.987 76.5825 308.208C76.9387 308.428 77.3797 308.615 77.8884 308.751C78.3972 308.869 78.9739 308.937 79.6184 308.937C80.8564 308.937 81.7892 308.7 82.4337 308.242C83.0782 307.784 83.4004 307.19 83.4004 306.478C83.4004 306.054 83.2987 305.681 83.0782 305.376C82.8577 305.07 82.5524 304.799 82.1793 304.578C81.8062 304.358 81.3652 304.154 80.8734 303.968C80.3816 303.798 79.8558 303.629 79.2961 303.459C78.7534 303.289 78.2107 303.103 77.651 302.899C77.0913 302.713 76.5995 302.458 76.1416 302.17C75.6837 301.882 75.3105 301.526 75.0222 301.119C74.7339 300.695 74.5813 300.186 74.5813 299.592C74.5813 299.066 74.683 298.592 74.9205 298.168C75.1409 297.744 75.4462 297.387 75.8533 297.082C76.2603 296.777 76.7521 296.539 77.3457 296.37C77.9224 296.217 78.5668 296.132 79.2792 296.132C80.0084 296.132 80.6699 296.217 81.2804 296.387C81.891 296.556 82.4168 296.794 82.8577 297.099C83.2817 297.404 83.6209 297.76 83.8753 298.184C84.1128 298.608 84.2315 299.066 84.2315 299.558V299.711H83.2478V299.626C83.2478 299.253 83.163 298.914 82.9764 298.592C82.7899 298.286 82.5355 298.015 82.1963 297.794C81.8401 297.574 81.4331 297.387 80.9412 297.252C80.4324 297.133 79.8897 297.065 79.2792 297.065C78.092 297.065 77.1931 297.303 76.5656 297.76C75.9381 298.218 75.6328 298.812 75.6328 299.524C75.6328 299.948 75.7345 300.321 75.955 300.61C76.1585 300.898 76.4469 301.169 76.803 301.39C77.1592 301.61 77.5832 301.814 78.0581 301.984C78.5329 302.153 79.0417 302.323 79.5844 302.492C80.1102 302.645 80.6699 302.832 81.2465 303.018C81.8232 303.222 82.3489 303.476 82.8238 303.781C83.2987 304.07 83.6888 304.426 84.011 304.85C84.3163 305.274 84.4689 305.8 84.4689 306.427C84.4689 306.953 84.3502 307.411 84.1128 307.835C83.8923 308.259 83.57 308.632 83.146 308.92C82.722 309.225 82.2132 309.463 81.6196 309.616C81.026 309.785 80.3476 309.87 79.6184 309.87C78.8552 309.87 78.1768 309.785 77.5323 309.616C76.9217 309.446 76.379 309.208 75.9211 308.903C75.4632 308.598 75.124 308.242 74.8696 307.818C74.6152 307.394 74.4795 306.936 74.4795 306.444V306.308H75.4632Z" fill="black"/>
</g>
<g id="Group_54">
<path id="Vector_60" d="M90.7835 306.308V306.376C90.7835 306.749 90.8852 307.088 91.0718 307.394C91.2584 307.716 91.5467 307.987 91.9028 308.208C92.259 308.428 92.7 308.615 93.2088 308.751C93.7176 308.869 94.2942 308.937 94.9387 308.937C96.1768 308.937 97.1096 308.7 97.754 308.242C98.3985 307.784 98.7208 307.19 98.7208 306.478C98.7208 306.054 98.619 305.681 98.3985 305.376C98.178 305.07 97.8728 304.799 97.4996 304.578C97.1265 304.358 96.6856 304.154 96.1937 303.968C95.7019 303.798 95.1761 303.629 94.6164 303.459C94.0737 303.289 93.531 303.103 92.9713 302.899C92.4116 302.713 91.9198 302.458 91.4619 302.17C91.004 301.882 90.6308 301.526 90.3425 301.119C90.0542 300.695 89.9016 300.186 89.9016 299.592C89.9016 299.066 90.0033 298.592 90.2408 298.168C90.4612 297.744 90.7665 297.387 91.1736 297.082C91.5806 296.777 92.0724 296.539 92.666 296.37C93.2427 296.217 93.8872 296.132 94.5995 296.132C95.3288 296.132 95.9902 296.217 96.6008 296.387C97.2113 296.556 97.7371 296.794 98.178 297.099C98.602 297.404 98.9412 297.76 99.1956 298.184C99.4331 298.608 99.5518 299.066 99.5518 299.558V299.711H98.5681V299.626C98.5681 299.253 98.4833 298.914 98.2968 298.592C98.1102 298.286 97.8558 298.015 97.5166 297.794C97.1604 297.574 96.7534 297.387 96.2616 297.252C95.7528 297.133 95.21 297.065 94.5995 297.065C93.4123 297.065 92.5134 297.303 91.8859 297.76C91.2584 298.218 90.9531 298.812 90.9531 299.524C90.9531 299.948 91.0548 300.321 91.2753 300.61C91.4788 300.898 91.7672 301.169 92.1233 301.39C92.4795 301.61 92.9035 301.814 93.3784 301.984C93.8532 302.153 94.362 302.323 94.9048 302.492C95.4305 302.645 95.9902 302.832 96.5668 303.018C97.1435 303.222 97.6692 303.476 98.1441 303.781C98.619 304.07 99.0091 304.426 99.3313 304.85C99.6366 305.274 99.7892 305.8 99.7892 306.427C99.7892 306.953 99.6705 307.411 99.4331 307.835C99.2126 308.259 98.8904 308.632 98.4664 308.92C98.0424 309.225 97.5336 309.463 96.94 309.616C96.3464 309.785 95.668 309.87 94.9387 309.87C94.1755 309.87 93.4971 309.785 92.8526 309.616C92.242 309.446 91.6993 309.208 91.2414 308.903C90.7835 308.598 90.4443 308.242 90.1899 307.818C89.9355 307.394 89.7998 306.936 89.7998 306.444V306.308H90.7835Z" fill="black"/>
</g>
<g id="Group_55">
<path id="Vector_61" d="M105.094 303.001C105.094 302.051 105.281 301.152 105.637 300.321C105.993 299.49 106.485 298.778 107.112 298.151C107.74 297.523 108.469 297.031 109.317 296.675C110.148 296.319 111.047 296.132 111.997 296.132C112.947 296.132 113.846 296.319 114.677 296.675C115.508 297.031 116.237 297.523 116.864 298.151C117.492 298.778 117.984 299.49 118.34 300.321C118.696 301.152 118.883 302.051 118.883 303.001C118.883 303.951 118.696 304.85 118.34 305.681C117.984 306.512 117.492 307.241 116.864 307.869C116.237 308.479 115.508 308.971 114.677 309.327C113.846 309.683 112.947 309.87 111.997 309.87C111.047 309.87 110.148 309.683 109.317 309.327C108.469 308.971 107.74 308.479 107.112 307.869C106.485 307.241 105.993 306.512 105.637 305.681C105.281 304.85 105.094 303.951 105.094 303.001ZM106.112 303.001C106.112 303.815 106.264 304.578 106.57 305.291C106.892 306.003 107.316 306.631 107.842 307.156C108.368 307.682 108.995 308.106 109.707 308.411C110.42 308.717 111.183 308.869 111.997 308.869C112.794 308.869 113.557 308.717 114.27 308.411C114.982 308.106 115.609 307.682 116.135 307.156C116.661 306.631 117.085 306.003 117.407 305.291C117.712 304.578 117.865 303.815 117.865 303.001C117.865 302.204 117.712 301.441 117.407 300.728C117.085 300.016 116.661 299.389 116.135 298.863C115.609 298.337 114.982 297.913 114.27 297.591C113.557 297.286 112.794 297.133 111.997 297.133C111.183 297.133 110.42 297.286 109.707 297.591C108.995 297.913 108.368 298.337 107.842 298.863C107.316 299.389 106.892 300.016 106.57 300.728C106.264 301.441 106.112 302.204 106.112 303.001Z" fill="black"/>
</g>
<g id="Group_56">
<path id="Vector_62" d="M125.125 309.62V296.391H126.023L135.182 307.907V296.391H136.182V309.62H135.284L126.125 298.121V309.62H125.125Z" fill="black"/>
</g>
</g>
<g id="Group_57">
<g id="Group_58">
<path id="Vector_63" d="M49.7654 365.519V365.587C49.7654 365.96 49.8672 366.299 50.0537 366.605C50.2403 366.927 50.5286 367.198 50.8848 367.419C51.2409 367.639 51.6819 367.826 52.1907 367.962C52.6995 368.08 53.2761 368.148 53.9206 368.148C55.1587 368.148 56.0915 367.911 56.736 367.453C57.3805 366.995 57.7027 366.401 57.7027 365.689C57.7027 365.265 57.6009 364.892 57.3805 364.586C57.16 364.281 56.8547 364.01 56.4816 363.789C56.1085 363.569 55.6675 363.365 55.1757 363.179C54.6838 363.009 54.1581 362.84 53.5984 362.67C53.0557 362.5 52.5129 362.314 51.9533 362.11C51.3936 361.924 50.9017 361.669 50.4438 361.381C49.9859 361.093 49.6128 360.737 49.3245 360.33C49.0361 359.906 48.8835 359.397 48.8835 358.803C48.8835 358.277 48.9853 357.802 49.2227 357.378C49.4432 356.954 49.7485 356.598 50.1555 356.293C50.5625 355.988 51.0544 355.75 51.648 355.581C52.2246 355.428 52.8691 355.343 53.5814 355.343C54.3107 355.343 54.9721 355.428 55.5827 355.598C56.1933 355.767 56.719 356.005 57.16 356.31C57.584 356.615 57.9232 356.971 58.1776 357.395C58.415 357.819 58.5337 358.277 58.5337 358.769V358.922H57.5501V358.837C57.5501 358.464 57.4653 358.125 57.2787 357.802C57.0921 357.497 56.8377 357.226 56.4985 357.005C56.1424 356.785 55.7353 356.598 55.2435 356.463C54.7347 356.344 54.192 356.276 53.5814 356.276C52.3942 356.276 51.4953 356.514 50.8678 356.971C50.2403 357.429 49.935 358.023 49.935 358.735C49.935 359.159 50.0368 359.532 50.2573 359.821C50.4608 360.109 50.7491 360.38 51.1053 360.601C51.4614 360.821 51.8854 361.025 52.3603 361.194C52.8352 361.364 53.344 361.534 53.8867 361.703C54.4125 361.856 54.9721 362.042 55.5488 362.229C56.1254 362.433 56.6512 362.687 57.1261 362.992C57.6009 363.281 57.991 363.637 58.3133 364.061C58.6185 364.485 58.7712 365.01 58.7712 365.638C58.7712 366.164 58.6525 366.622 58.415 367.046C58.1945 367.47 57.8723 367.843 57.4483 368.131C57.0243 368.436 56.5155 368.674 55.9219 368.826C55.3283 368.996 54.6499 369.081 53.9206 369.081C53.1574 369.081 52.479 368.996 51.8345 368.826C51.224 368.657 50.6813 368.419 50.2233 368.114C49.7654 367.809 49.4262 367.453 49.1718 367.029C48.9174 366.605 48.7817 366.147 48.7817 365.655V365.519H49.7654Z" fill="black"/>
</g>
<g id="Group_59">
<path id="Vector_64" d="M65.0078 355.602H70.1128C70.876 355.602 71.5713 355.721 72.1819 355.975C72.7755 356.213 73.2843 356.535 73.7083 356.959C74.1153 357.383 74.4206 357.858 74.6411 358.417C74.8616 358.977 74.9633 359.554 74.9633 360.164C74.9633 360.758 74.8616 361.335 74.6411 361.894C74.4206 362.437 74.1153 362.912 73.7083 363.336C73.2843 363.76 72.7755 364.082 72.1819 364.336C71.5713 364.591 70.876 364.71 70.1128 364.71H66.0085V368.831H65.0078V355.602ZM66.0085 356.552V363.76H70.0789C70.6894 363.76 71.2321 363.658 71.707 363.455C72.1989 363.268 72.6059 362.997 72.9451 362.657C73.2673 362.335 73.5217 361.945 73.6913 361.504C73.8609 361.08 73.9457 360.622 73.9457 360.164C73.9457 359.672 73.8609 359.215 73.6913 358.774C73.5217 358.35 73.2673 357.959 72.9451 357.62C72.6059 357.298 72.1989 357.027 71.707 356.84C71.2321 356.654 70.6894 356.552 70.0789 356.552H66.0085Z" fill="black"/>
</g>
<g id="Group_60">
<path id="Vector_65" d="M86.8352 355.602C87.5475 355.602 88.192 355.721 88.7517 355.941C89.3114 356.162 89.7693 356.467 90.1594 356.857C90.5495 357.247 90.8378 357.705 91.0413 358.231C91.2448 358.74 91.3466 359.282 91.3466 359.859C91.3466 360.317 91.2787 360.775 91.1431 361.199C91.0074 361.623 90.8208 362.03 90.5664 362.386C90.312 362.742 89.9898 363.064 89.6167 363.319C89.2435 363.59 88.8195 363.794 88.3277 363.946L91.8045 368.831H90.5834L87.2423 364.133C87.1744 364.15 87.1066 364.15 87.0387 364.15H82.0016V368.831H81.001V355.602H86.8352ZM82.0016 356.552V363.2H86.8013C87.3779 363.2 87.8867 363.115 88.3277 362.929C88.7687 362.742 89.1418 362.505 89.4471 362.2C89.7523 361.894 89.9898 361.538 90.1424 361.131C90.2951 360.741 90.3629 360.317 90.3629 359.876C90.3629 359.435 90.2951 359.011 90.1424 358.604C89.9898 358.214 89.7523 357.858 89.4471 357.552C89.1418 357.247 88.7687 357.01 88.3277 356.823C87.8867 356.637 87.3779 356.552 86.8013 356.552H82.0016Z" fill="black"/>
</g>
<g id="Group_61">
<path id="Vector_66" d="M98.8488 355.602H97.8481V368.831H98.8488V355.602Z" fill="black"/>
</g>
<g id="Group_62">
<path id="Vector_67" d="M106.026 368.831V355.602H106.925L116.083 367.118V355.602H117.084V368.831H116.185L107.027 357.332V368.831H106.026Z" fill="black"/>
</g>
<g id="Group_63">
<path id="Vector_68" d="M122.821 355.602H133.37V356.586H128.588V368.831H127.587V356.586H122.821V355.602Z" fill="black"/>
</g>
</g>
</g>
</g>
</svg>
