<svg width="1074" height="1074" viewBox="0 0 1074 1074" fill="none" xmlns="http://www.w3.org/2000/svg">
<g id="lambda 1">
<g id="Module">
<g id="Module1">
<path id="Vector" d="M984.035 31H0V61.4556H984.035V31Z" fill="#774D4D"/>
</g>
<g id="Group">
<g id="Group_2">
<path id="Vector_2" d="M427.824 54.9323V38.1779H429.026L436.33 52.6984L443.633 38.1779H444.836V54.9323H443.568V40.8414L436.759 54.3953H435.879L429.091 40.8844V54.9323H427.824Z" fill="black"/>
</g>
<g id="Group_3">
<path id="Vector_3" d="M452.733 46.5496C452.733 45.3467 452.969 44.2082 453.421 43.1557C453.872 42.1032 454.495 41.201 455.289 40.4063C456.084 39.6115 457.008 38.9886 458.082 38.5375C459.134 38.0864 460.273 37.8502 461.476 37.8502C462.678 37.8502 463.817 38.0864 464.869 38.5375C465.922 38.9886 466.846 39.6115 467.64 40.4063C468.435 41.201 469.058 42.1032 469.509 43.1557C469.96 44.2082 470.196 45.3467 470.196 46.5496C470.196 47.7524 469.96 48.8909 469.509 49.9434C469.058 50.9959 468.435 51.9196 467.64 52.7143C466.846 53.4876 465.922 54.1105 464.869 54.5616C463.817 55.0127 462.678 55.249 461.476 55.249C460.273 55.249 459.134 55.0127 458.082 54.5616C457.008 54.1105 456.084 53.4876 455.289 52.7143C454.495 51.9196 453.872 50.9959 453.421 49.9434C452.969 48.8909 452.733 47.7524 452.733 46.5496ZM454.022 46.5496C454.022 47.5806 454.215 48.5472 454.602 49.4494C455.01 50.3515 455.547 51.1463 456.213 51.8122C456.879 52.478 457.674 53.015 458.576 53.4017C459.478 53.7883 460.445 53.9816 461.476 53.9816C462.485 53.9816 463.452 53.7883 464.354 53.4017C465.256 53.015 466.051 52.478 466.717 51.8122C467.383 51.1463 467.92 50.3515 468.328 49.4494C468.714 48.5472 468.908 47.5806 468.908 46.5496C468.908 45.54 468.714 44.5734 468.328 43.6712C467.92 42.7691 467.383 41.9743 466.717 41.3084C466.051 40.6426 465.256 40.1056 464.354 39.6974C463.452 39.3108 462.485 39.1175 461.476 39.1175C460.445 39.1175 459.478 39.3108 458.576 39.6974C457.674 40.1056 456.879 40.6426 456.213 41.3084C455.547 41.9743 455.01 42.7691 454.602 43.6712C454.215 44.5734 454.022 45.54 454.022 46.5496Z" fill="black"/>
</g>
<g id="Group_4">
<path id="Vector_4" d="M478.102 38.1779H484.653C485.92 38.1779 487.059 38.3927 488.026 38.8223C488.992 39.2734 489.808 39.8534 490.474 40.6052C491.119 41.3784 491.613 42.2591 491.935 43.2687C492.279 44.2782 492.45 45.3737 492.45 46.5551C492.45 47.7365 492.279 48.832 491.935 49.863C491.613 50.8726 491.119 51.7533 490.474 52.5051C489.808 53.2569 488.992 53.8583 488.026 54.2879C487.059 54.7175 485.92 54.9323 484.653 54.9323H478.102V38.1779ZM479.369 39.4238V53.6865H484.589C485.641 53.6865 486.586 53.4932 487.403 53.128C488.219 52.7628 488.906 52.2688 489.465 51.6244C490.023 51.0015 490.453 50.2497 490.753 49.369C491.033 48.5098 491.183 47.5647 491.183 46.5551C491.183 45.5456 491.033 44.6004 490.753 43.7198C490.453 42.8606 490.023 42.1088 489.465 41.4858C488.906 40.8414 488.219 40.3259 487.403 39.9608C486.586 39.5956 485.641 39.4238 484.589 39.4238H479.369Z" fill="black"/>
</g>
<g id="Group_5">
<path id="Vector_5" d="M514.273 38.1779V48.5957C514.273 49.5408 514.123 50.4215 513.822 51.2378C513.522 52.0325 513.07 52.7414 512.491 53.3213C511.889 53.9228 511.159 54.3953 510.278 54.739C509.397 55.0827 508.388 55.2545 507.249 55.2545C506.111 55.2545 505.101 55.0827 504.221 54.739C503.34 54.3953 502.61 53.9228 502.03 53.3213C501.428 52.7414 500.977 52.0325 500.677 51.2378C500.376 50.4215 500.225 49.5408 500.225 48.5957V38.1779H501.493V48.5528C501.493 49.3475 501.622 50.0564 501.879 50.7222C502.116 51.3881 502.481 51.9681 502.975 52.4621C503.469 52.9562 504.07 53.3213 504.779 53.6006C505.488 53.8798 506.326 54.0087 507.249 54.0087C508.195 54.0087 509.032 53.8798 509.741 53.6006C510.45 53.3213 511.051 52.9562 511.524 52.4621C512.018 51.9681 512.383 51.3881 512.641 50.7222C512.877 50.0564 513.006 49.3475 513.006 48.5528V38.1779H514.273Z" fill="black"/>
</g>
<g id="Group_6">
<path id="Vector_6" d="M523.136 38.1779H524.403V53.6865H534.091V54.9323H523.136V38.1779Z" fill="black"/>
</g>
<g id="Group_7">
<path id="Vector_7" d="M541.49 38.1779H553.004V39.4238H542.758V46.104H551.479V47.3069H542.758V53.6865H553.004V54.9323H541.49V38.1779Z" fill="black"/>
</g>
</g>
</g>
<g id="ModuleBD">
<g id="Unit">
<path id="Vector_8" d="M236.294 71.9698H0V102.425H236.294V71.9698Z" fill="#C77272"/>
</g>
<g id="Group_8">
<g id="Group_9">
<path id="Vector_9" d="M96.9053 79.1478V89.5656C96.9053 90.5107 96.755 91.3914 96.4543 92.2076C96.1535 93.0024 95.7025 93.7112 95.1225 94.2912C94.5211 94.8926 93.7907 95.3652 92.9101 95.7088C92.0294 96.0525 91.0198 96.2244 89.8814 96.2244C88.7429 96.2244 87.7334 96.0525 86.8527 95.7088C85.972 95.3652 85.2417 94.8926 84.6617 94.2912C84.0603 93.7112 83.6092 93.0024 83.3085 92.2076C83.0078 91.3914 82.8574 90.5107 82.8574 89.5656V79.1478H84.1247V89.5226C84.1247 90.3174 84.2536 91.0262 84.5114 91.6921C84.7476 92.358 85.1128 92.9379 85.6068 93.432C86.1009 93.926 86.7023 94.2912 87.4112 94.5704C88.12 94.8496 88.9577 94.9785 89.8814 94.9785C90.8265 94.9785 91.6642 94.8496 92.3731 94.5704C93.0819 94.2912 93.6833 93.926 94.1559 93.432C94.6499 92.9379 95.0151 92.358 95.2729 91.6921C95.5091 91.0262 95.638 90.3174 95.638 89.5226V79.1478H96.9053Z" fill="black"/>
</g>
<g id="Group_10">
<path id="Vector_10" d="M105.768 95.9022V79.1478H106.906L118.505 93.7327V79.1478H119.773V95.9022H118.634L107.035 81.3387V95.9022H105.768Z" fill="black"/>
</g>
<g id="Group_11">
<path id="Vector_11" d="M130.142 79.1478H128.875V95.9022H130.142V79.1478Z" fill="black"/>
</g>
<g id="Group_12">
<path id="Vector_12" d="M137.396 79.1478H150.757V80.3936H144.7V95.9022H143.432V80.3936H137.396V79.1478Z" fill="black"/>
</g>
</g>
<g id="Unit1">
<path id="Vector_13" d="M492.004 71.9698H236.281V102.425H492.004V71.9698Z" fill="#C77272"/>
</g>
<g id="Group_13">
<g id="Group_14">
<path id="Vector_14" d="M342.888 79.1478V89.5656C342.888 90.5107 342.738 91.3914 342.437 92.2076C342.137 93.0024 341.685 93.7112 341.105 94.2912C340.504 94.8926 339.774 95.3652 338.893 95.7088C338.012 96.0525 337.003 96.2244 335.864 96.2244C334.726 96.2244 333.716 96.0525 332.836 95.7088C331.955 95.3652 331.225 94.8926 330.645 94.2912C330.043 93.7112 329.592 93.0024 329.291 92.2076C328.991 91.3914 328.84 90.5107 328.84 89.5656V79.1478H330.108V89.5226C330.108 90.3174 330.237 91.0262 330.494 91.6921C330.731 92.358 331.096 92.9379 331.59 93.432C332.084 93.926 332.685 94.2912 333.394 94.5704C334.103 94.8496 334.941 94.9785 335.864 94.9785C336.809 94.9785 337.647 94.8496 338.356 94.5704C339.065 94.2912 339.666 93.926 340.139 93.432C340.633 92.9379 340.998 92.358 341.256 91.6921C341.492 91.0262 341.621 90.3174 341.621 89.5226V79.1478H342.888Z" fill="black"/>
</g>
<g id="Group_15">
<path id="Vector_15" d="M351.751 95.9022V79.1478H352.889L364.488 93.7327V79.1478H365.756V95.9022H364.617L353.018 81.3387V95.9022H351.751Z" fill="black"/>
</g>
<g id="Group_16">
<path id="Vector_16" d="M376.125 79.1478H374.858V95.9022H376.125V79.1478Z" fill="black"/>
</g>
<g id="Group_17">
<path id="Vector_17" d="M383.379 79.1478H396.74V80.3936H390.683V95.9022H389.415V80.3936H383.379V79.1478Z" fill="black"/>
</g>
</g>
<g id="Unit2">
<path id="Vector_18" d="M736.202 71.9698H492.031V102.425H736.202V71.9698Z" fill="#C77272"/>
</g>
<g id="Group_18">
<g id="Group_19">
<path id="Vector_19" d="M592.837 79.1478V89.5656C592.837 90.5107 592.687 91.3914 592.386 92.2076C592.085 93.0024 591.634 93.7112 591.054 94.2912C590.453 94.8926 589.723 95.3652 588.842 95.7088C587.961 96.0525 586.952 96.2244 585.813 96.2244C584.675 96.2244 583.665 96.0525 582.785 95.7088C581.904 95.3652 581.174 94.8926 580.594 94.2912C579.992 93.7112 579.541 93.0024 579.24 92.2076C578.94 91.3914 578.789 90.5107 578.789 89.5656V79.1478H580.057V89.5226C580.057 90.3174 580.185 91.0262 580.443 91.6921C580.679 92.358 581.045 92.9379 581.539 93.432C582.033 93.926 582.634 94.2912 583.343 94.5704C584.052 94.8496 584.89 94.9785 585.813 94.9785C586.758 94.9785 587.596 94.8496 588.305 94.5704C589.014 94.2912 589.615 93.926 590.088 93.432C590.582 92.9379 590.947 92.358 591.205 91.6921C591.441 91.0262 591.57 90.3174 591.57 89.5226V79.1478H592.837Z" fill="black"/>
</g>
<g id="Group_20">
<path id="Vector_20" d="M601.7 95.9022V79.1478H602.838L614.437 93.7327V79.1478H615.705V95.9022H614.566L602.967 81.3387V95.9022H601.7Z" fill="black"/>
</g>
<g id="Group_21">
<path id="Vector_21" d="M626.074 79.1478H624.807V95.9022H626.074V79.1478Z" fill="black"/>
</g>
<g id="Group_22">
<path id="Vector_22" d="M633.328 79.1478H646.689V80.3936H640.632V95.9022H639.364V80.3936H633.328V79.1478Z" fill="black"/>
</g>
</g>
<g id="Unit3">
<path id="Vector_23" d="M984.025 71.9698H736.179V102.425H984.025V71.9698Z" fill="#914242"/>
</g>
<g id="Group_23">
<g id="Group_24">
<path id="Vector_24" d="M811.072 79.1478H818.633C819.449 79.1478 820.158 79.2552 820.781 79.5129C821.382 79.7492 821.898 80.0499 822.306 80.4366C822.714 80.8447 823.036 81.2958 823.251 81.8113C823.444 82.3483 823.552 82.8853 823.552 83.4652C823.552 84.3459 823.315 85.1192 822.864 85.8066C822.413 86.4939 821.79 87.0094 821.017 87.3316C822.005 87.6324 822.8 88.1479 823.38 88.8782C823.96 89.63 824.239 90.4677 824.239 91.4343C824.239 92.0358 824.132 92.6157 823.895 93.1527C823.659 93.6897 823.337 94.1623 822.929 94.5704C822.499 94.9785 821.984 95.3007 821.382 95.537C820.781 95.7733 820.115 95.9022 819.363 95.9022H811.072V79.1478ZM812.339 87.9546V94.7208H819.256C819.836 94.7208 820.351 94.6348 820.802 94.4415C821.253 94.2482 821.64 94.0119 821.962 93.6897C822.284 93.3675 822.521 93.0024 822.693 92.5942C822.864 92.1861 822.95 91.7565 822.95 91.3054C822.95 90.8544 822.864 90.4462 822.693 90.0381C822.521 89.63 822.284 89.2863 821.962 88.9641C821.64 88.6634 821.253 88.4271 820.802 88.2338C820.351 88.0405 819.836 87.9546 819.256 87.9546H812.339ZM812.339 80.3506V86.8806H818.912C819.428 86.8806 819.9 86.7946 820.308 86.6013C820.716 86.4295 821.06 86.1932 821.361 85.871C821.64 85.5703 821.876 85.2266 822.027 84.8185C822.177 84.4318 822.263 84.0237 822.263 83.5941C822.263 83.1645 822.177 82.7564 822.027 82.3698C821.876 81.9831 821.64 81.6394 821.339 81.3387C821.017 81.038 820.63 80.8017 820.179 80.6084C819.728 80.4366 819.191 80.3506 818.568 80.3506H812.339Z" fill="black"/>
</g>
<g id="Group_25">
<path id="Vector_25" d="M846.096 79.1478V89.5656C846.096 90.5107 845.946 91.3914 845.645 92.2076C845.345 93.0024 844.894 93.7112 844.314 94.2912C843.712 94.8926 842.982 95.3652 842.101 95.7088C841.22 96.0525 840.211 96.2244 839.072 96.2244C837.934 96.2244 836.924 96.0525 836.044 95.7088C835.163 95.3652 834.433 94.8926 833.853 94.2912C833.251 93.7112 832.8 93.0024 832.5 92.2076C832.199 91.3914 832.049 90.5107 832.049 89.5656V79.1478H833.316V89.5226C833.316 90.3174 833.445 91.0262 833.702 91.6921C833.939 92.358 834.304 92.9379 834.798 93.432C835.292 93.926 835.893 94.2912 836.602 94.5704C837.311 94.8496 838.149 94.9785 839.072 94.9785C840.018 94.9785 840.855 94.8496 841.564 94.5704C842.273 94.2912 842.874 93.926 843.347 93.432C843.841 92.9379 844.206 92.358 844.464 91.6921C844.7 91.0262 844.829 90.3174 844.829 89.5226V79.1478H846.096Z" fill="black"/>
</g>
<g id="Group_26">
<path id="Vector_26" d="M856.259 79.1478H854.992V95.9022H856.259V79.1478Z" fill="black"/>
</g>
<g id="Group_27">
<path id="Vector_27" d="M865.316 79.1478H866.583V94.6563H876.271V95.9022H865.316V79.1478Z" fill="black"/>
</g>
<g id="Group_28">
<path id="Vector_28" d="M883.703 79.1478H890.255C891.522 79.1478 892.66 79.3626 893.627 79.7922C894.594 80.2432 895.41 80.8232 896.076 81.575C896.72 82.3483 897.214 83.229 897.536 84.2385C897.88 85.2481 898.052 86.3436 898.052 87.525C898.052 88.7064 897.88 89.8018 897.536 90.8329C897.214 91.8424 896.72 92.7231 896.076 93.4749C895.41 94.2267 894.594 94.8282 893.627 95.2578C892.66 95.6874 891.522 95.9022 890.255 95.9022H883.703V79.1478ZM884.971 80.3936V94.6563H890.19C891.243 94.6563 892.188 94.463 893.004 94.0978C893.82 93.7327 894.508 93.2386 895.066 92.5942C895.625 91.9713 896.054 91.2195 896.355 90.3388C896.634 89.4796 896.785 88.5345 896.785 87.525C896.785 86.5154 896.634 85.5703 896.355 84.6896C896.054 83.8304 895.625 83.0786 895.066 82.4557C894.508 81.8113 893.82 81.2958 893.004 80.9306C892.188 80.5654 891.243 80.3936 890.19 80.3936H884.971Z" fill="black"/>
</g>
</g>
</g>
<g id="UnitBD">
<g id="Unit4">
<path id="Vector_29" d="M236.294 184.326H0V214.781H236.294V184.326Z" fill="#A76672"/>
</g>
<g id="Unit5">
<path id="Vector_30" d="M236.294 474.195H0V504.651H236.294V474.195Z" fill="#914242"/>
</g>
<g id="Unit6">
<path id="Vector_31" d="M236.294 255.22H0V285.675H236.294V255.22Z" fill="#A76672"/>
</g>
<g id="Add">
<path id="Vector_32" fill-rule="evenodd" clip-rule="evenodd" d="M103.375 233.717H116.714V220.379H119.572V233.717H132.91V236.576H119.572V249.914H116.714V236.576H103.375V233.717Z" fill="#7F1919"/>
</g>
<g id="Unit7">
<path id="Vector_33" d="M236.294 325.098H0V355.554H236.294V325.098Z" fill="#A76672"/>
</g>
<g id="Add1">
<path id="Vector_34" fill-rule="evenodd" clip-rule="evenodd" d="M103.375 303.891H116.714V290.552H119.572V303.891H132.91V306.749H119.572V320.087H116.714V306.749H103.375V303.891Z" fill="#7F1919"/>
</g>
<g id="Unit8">
<path id="Vector_35" d="M236.294 398.909H0V429.365H236.294V398.909Z" fill="#A76672"/>
</g>
<g id="Add2">
<path id="Vector_36" fill-rule="evenodd" clip-rule="evenodd" d="M103.375 375.473H116.714V362.135H119.572V375.473H132.91V378.331H119.572V391.67H116.714V378.331H103.375V375.473Z" fill="#7F1919"/>
</g>
<g id="Add3">
<path id="Vector_37" fill-rule="evenodd" clip-rule="evenodd" d="M103.375 449.94H116.714V436.602H119.572V449.94H132.91V452.798H119.572V466.136H116.714V452.798H103.375V449.94Z" fill="#7F1919"/>
</g>
<g id="Forward  small">
<path id="Vector_38" d="M118.139 159.357L132.906 144.321H124.18V125.526H112.097V144.321H103.371L118.139 159.357Z" fill="#7F1919"/>
</g>
<g id="Group_29">
<g id="Group_30">
<path id="Vector_39" d="M57.5544 191.503H58.8218V207.012H68.5092V208.258H57.5544V191.503Z" fill="black"/>
</g>
<g id="Group_31">
<path id="Vector_40" d="M75.9089 191.503H87.4222V192.749H77.1763V199.43H85.8971V200.632H77.1763V207.012H87.4222V208.258H75.9089V191.503Z" fill="black"/>
</g>
<g id="Group_32">
<path id="Vector_41" d="M95.5748 204.064V204.15C95.5748 204.622 95.7037 205.052 95.94 205.438C96.1763 205.847 96.5414 206.19 96.9925 206.469C97.4436 206.749 98.0021 206.985 98.6465 207.157C99.2909 207.307 100.021 207.393 100.837 207.393C102.405 207.393 103.587 207.092 104.403 206.512C105.219 205.932 105.627 205.181 105.627 204.279C105.627 203.742 105.499 203.269 105.219 202.882C104.94 202.496 104.553 202.152 104.081 201.873C103.608 201.594 103.05 201.336 102.427 201.099C101.804 200.885 101.138 200.67 100.429 200.455C99.7419 200.24 99.0546 200.004 98.3457 199.746C97.6369 199.51 97.014 199.188 96.434 198.823C95.8541 198.457 95.3815 198.006 95.0163 197.491C94.6512 196.954 94.4579 196.309 94.4579 195.558C94.4579 194.892 94.5867 194.29 94.8875 193.753C95.1667 193.216 95.5533 192.765 96.0689 192.379C96.5844 191.992 97.2073 191.691 97.9591 191.476C98.6894 191.283 99.5057 191.176 100.408 191.176C101.331 191.176 102.169 191.283 102.942 191.498C103.716 191.713 104.382 192.013 104.94 192.4C105.477 192.787 105.907 193.238 106.229 193.775C106.53 194.312 106.68 194.892 106.68 195.515V195.708H105.434V195.601C105.434 195.128 105.327 194.698 105.09 194.29C104.854 193.904 104.532 193.56 104.102 193.281C103.651 193.002 103.136 192.765 102.513 192.593C101.868 192.443 101.181 192.357 100.408 192.357C98.9042 192.357 97.7658 192.658 96.971 193.238C96.1763 193.818 95.7896 194.57 95.7896 195.472C95.7896 196.009 95.9185 196.481 96.1977 196.846C96.4555 197.212 96.8207 197.555 97.2717 197.835C97.7228 198.114 98.2598 198.372 98.8613 198.586C99.4627 198.801 100.107 199.016 100.794 199.231C101.46 199.424 102.169 199.66 102.899 199.897C103.63 200.154 104.296 200.477 104.897 200.863C105.499 201.228 105.993 201.679 106.401 202.216C106.787 202.753 106.981 203.419 106.981 204.214C106.981 204.88 106.83 205.46 106.53 205.997C106.25 206.534 105.842 207.006 105.305 207.372C104.768 207.758 104.124 208.059 103.372 208.252C102.62 208.467 101.761 208.575 100.837 208.575C99.8708 208.575 99.0116 208.467 98.1954 208.252C97.4221 208.038 96.7347 207.737 96.1548 207.35C95.5748 206.964 95.1452 206.512 94.823 205.975C94.5008 205.438 94.329 204.858 94.329 204.236V204.064H95.5748Z" fill="black"/>
</g>
<g id="Group_33">
<path id="Vector_42" d="M114.978 204.064V204.15C114.978 204.622 115.107 205.052 115.343 205.438C115.58 205.847 115.945 206.19 116.396 206.469C116.847 206.749 117.405 206.985 118.05 207.157C118.694 207.307 119.425 207.393 120.241 207.393C121.809 207.393 122.99 207.092 123.806 206.512C124.623 205.932 125.031 205.181 125.031 204.279C125.031 203.742 124.902 203.269 124.623 202.882C124.343 202.496 123.957 202.152 123.484 201.873C123.012 201.594 122.453 201.336 121.83 201.099C121.207 200.885 120.541 200.67 119.833 200.455C119.145 200.24 118.458 200.004 117.749 199.746C117.04 199.51 116.417 199.188 115.837 198.823C115.257 198.457 114.785 198.006 114.42 197.491C114.055 196.954 113.861 196.309 113.861 195.558C113.861 194.892 113.99 194.29 114.291 193.753C114.57 193.216 114.957 192.765 115.472 192.379C115.988 191.992 116.611 191.691 117.362 191.476C118.093 191.283 118.909 191.176 119.811 191.176C120.735 191.176 121.573 191.283 122.346 191.498C123.119 191.713 123.785 192.013 124.343 192.4C124.88 192.787 125.31 193.238 125.632 193.775C125.933 194.312 126.083 194.892 126.083 195.515V195.708H124.837V195.601C124.837 195.128 124.73 194.698 124.494 194.29C124.258 193.904 123.935 193.56 123.506 193.281C123.055 193.002 122.539 192.765 121.916 192.593C121.272 192.443 120.584 192.357 119.811 192.357C118.308 192.357 117.169 192.658 116.374 193.238C115.58 193.818 115.193 194.57 115.193 195.472C115.193 196.009 115.322 196.481 115.601 196.846C115.859 197.212 116.224 197.555 116.675 197.835C117.126 198.114 117.663 198.372 118.265 198.586C118.866 198.801 119.51 199.016 120.198 199.231C120.864 199.424 121.573 199.66 122.303 199.897C123.033 200.154 123.699 200.477 124.3 200.863C124.902 201.228 125.396 201.679 125.804 202.216C126.191 202.753 126.384 203.419 126.384 204.214C126.384 204.88 126.234 205.46 125.933 205.997C125.654 206.534 125.246 207.006 124.709 207.372C124.172 207.758 123.527 208.059 122.775 208.252C122.024 208.467 121.164 208.575 120.241 208.575C119.274 208.575 118.415 208.467 117.599 208.252C116.825 208.038 116.138 207.737 115.558 207.35C114.978 206.964 114.549 206.512 114.226 205.975C113.904 205.438 113.732 204.858 113.732 204.236V204.064H114.978Z" fill="black"/>
</g>
<g id="Group_34">
<path id="Vector_43" d="M133.103 199.875C133.103 198.672 133.339 197.534 133.79 196.481C134.241 195.429 134.864 194.527 135.659 193.732C136.454 192.937 137.377 192.314 138.451 191.863C139.504 191.412 140.642 191.176 141.845 191.176C143.048 191.176 144.187 191.412 145.239 191.863C146.292 192.314 147.215 192.937 148.01 193.732C148.805 194.527 149.428 195.429 149.879 196.481C150.33 197.534 150.566 198.672 150.566 199.875C150.566 201.078 150.33 202.216 149.879 203.269C149.428 204.321 148.805 205.245 148.01 206.04C147.215 206.813 146.292 207.436 145.239 207.887C144.187 208.338 143.048 208.575 141.845 208.575C140.642 208.575 139.504 208.338 138.451 207.887C137.377 207.436 136.454 206.813 135.659 206.04C134.864 205.245 134.241 204.321 133.79 203.269C133.339 202.216 133.103 201.078 133.103 199.875ZM134.392 199.875C134.392 200.906 134.585 201.873 134.972 202.775C135.38 203.677 135.917 204.472 136.583 205.138C137.248 205.804 138.043 206.341 138.945 206.727C139.848 207.114 140.814 207.307 141.845 207.307C142.855 207.307 143.821 207.114 144.724 206.727C145.626 206.341 146.42 205.804 147.086 205.138C147.752 204.472 148.289 203.677 148.697 202.775C149.084 201.873 149.277 200.906 149.277 199.875C149.277 198.866 149.084 197.899 148.697 196.997C148.289 196.095 147.752 195.3 147.086 194.634C146.42 193.968 145.626 193.431 144.724 193.023C143.821 192.636 142.855 192.443 141.845 192.443C140.814 192.443 139.848 192.636 138.945 193.023C138.043 193.431 137.248 193.968 136.583 194.634C135.917 195.3 135.38 196.095 134.972 196.997C134.585 197.899 134.392 198.866 134.392 199.875Z" fill="black"/>
</g>
<g id="Group_35">
<path id="Vector_44" d="M158.471 208.258V191.503H159.61L171.209 206.088V191.503H172.476V208.258H171.338L159.739 193.694V208.258H158.471Z" fill="black"/>
</g>
</g>
<g id="Group_36">
<g id="Group_37">
<path id="Vector_45" d="M57.5544 262.824H58.8218V278.332H68.5092V279.578H57.5544V262.824Z" fill="black"/>
</g>
<g id="Group_38">
<path id="Vector_46" d="M75.9089 262.824H87.4222V264.07H77.1763V270.75H85.8971V271.953H77.1763V278.332H87.4222V279.578H75.9089V262.824Z" fill="black"/>
</g>
<g id="Group_39">
<path id="Vector_47" d="M95.5748 275.384V275.47C95.5748 275.943 95.7037 276.372 95.94 276.759C96.1763 277.167 96.5414 277.511 96.9925 277.79C97.4436 278.069 98.0021 278.305 98.6465 278.477C99.2909 278.628 100.021 278.713 100.837 278.713C102.405 278.713 103.587 278.413 104.403 277.833C105.219 277.253 105.627 276.501 105.627 275.599C105.627 275.062 105.499 274.589 105.219 274.203C104.94 273.816 104.553 273.472 104.081 273.193C103.608 272.914 103.05 272.656 102.427 272.42C101.804 272.205 101.138 271.99 100.429 271.775C99.7419 271.561 99.0546 271.324 98.3457 271.067C97.6369 270.83 97.014 270.508 96.434 270.143C95.8541 269.778 95.3815 269.327 95.0163 268.811C94.6512 268.274 94.4579 267.63 94.4579 266.878C94.4579 266.212 94.5867 265.611 94.8875 265.074C95.1667 264.537 95.5533 264.086 96.0689 263.699C96.5844 263.312 97.2073 263.012 97.9591 262.797C98.6894 262.603 99.5057 262.496 100.408 262.496C101.331 262.496 102.169 262.603 102.942 262.818C103.716 263.033 104.382 263.334 104.94 263.72C105.477 264.107 105.907 264.558 106.229 265.095C106.53 265.632 106.68 266.212 106.68 266.835V267.028H105.434V266.921C105.434 266.448 105.327 266.019 105.09 265.611C104.854 265.224 104.532 264.88 104.102 264.601C103.651 264.322 103.136 264.086 102.513 263.914C101.868 263.763 101.181 263.677 100.408 263.677C98.9042 263.677 97.7658 263.978 96.971 264.558C96.1763 265.138 95.7896 265.89 95.7896 266.792C95.7896 267.329 95.9185 267.802 96.1977 268.167C96.4555 268.532 96.8207 268.876 97.2717 269.155C97.7228 269.434 98.2598 269.692 98.8613 269.907C99.4627 270.121 100.107 270.336 100.794 270.551C101.46 270.744 102.169 270.981 102.899 271.217C103.63 271.475 104.296 271.797 104.897 272.184C105.499 272.549 105.993 273 106.401 273.537C106.787 274.074 106.981 274.74 106.981 275.534C106.981 276.2 106.83 276.78 106.53 277.317C106.25 277.854 105.842 278.327 105.305 278.692C104.768 279.079 104.124 279.379 103.372 279.573C102.62 279.787 101.761 279.895 100.837 279.895C99.8708 279.895 99.0116 279.787 98.1954 279.573C97.4221 279.358 96.7347 279.057 96.1548 278.67C95.5748 278.284 95.1452 277.833 94.823 277.296C94.5008 276.759 94.329 276.179 94.329 275.556V275.384H95.5748Z" fill="black"/>
</g>
<g id="Group_40">
<path id="Vector_48" d="M114.978 275.384V275.47C114.978 275.943 115.107 276.372 115.343 276.759C115.58 277.167 115.945 277.511 116.396 277.79C116.847 278.069 117.405 278.305 118.05 278.477C118.694 278.628 119.425 278.713 120.241 278.713C121.809 278.713 122.99 278.413 123.806 277.833C124.623 277.253 125.031 276.501 125.031 275.599C125.031 275.062 124.902 274.589 124.623 274.203C124.343 273.816 123.957 273.472 123.484 273.193C123.012 272.914 122.453 272.656 121.83 272.42C121.207 272.205 120.541 271.99 119.833 271.775C119.145 271.561 118.458 271.324 117.749 271.067C117.04 270.83 116.417 270.508 115.837 270.143C115.257 269.778 114.785 269.327 114.42 268.811C114.055 268.274 113.861 267.63 113.861 266.878C113.861 266.212 113.99 265.611 114.291 265.074C114.57 264.537 114.957 264.086 115.472 263.699C115.988 263.312 116.611 263.012 117.362 262.797C118.093 262.603 118.909 262.496 119.811 262.496C120.735 262.496 121.573 262.603 122.346 262.818C123.119 263.033 123.785 263.334 124.343 263.72C124.88 264.107 125.31 264.558 125.632 265.095C125.933 265.632 126.083 266.212 126.083 266.835V267.028H124.837V266.921C124.837 266.448 124.73 266.019 124.494 265.611C124.258 265.224 123.935 264.88 123.506 264.601C123.055 264.322 122.539 264.086 121.916 263.914C121.272 263.763 120.584 263.677 119.811 263.677C118.308 263.677 117.169 263.978 116.374 264.558C115.58 265.138 115.193 265.89 115.193 266.792C115.193 267.329 115.322 267.802 115.601 268.167C115.859 268.532 116.224 268.876 116.675 269.155C117.126 269.434 117.663 269.692 118.265 269.907C118.866 270.121 119.51 270.336 120.198 270.551C120.864 270.744 121.573 270.981 122.303 271.217C123.033 271.475 123.699 271.797 124.3 272.184C124.902 272.549 125.396 273 125.804 273.537C126.191 274.074 126.384 274.74 126.384 275.534C126.384 276.2 126.234 276.78 125.933 277.317C125.654 277.854 125.246 278.327 124.709 278.692C124.172 279.079 123.527 279.379 122.775 279.573C122.024 279.787 121.164 279.895 120.241 279.895C119.274 279.895 118.415 279.787 117.599 279.573C116.825 279.358 116.138 279.057 115.558 278.67C114.978 278.284 114.549 277.833 114.226 277.296C113.904 276.759 113.732 276.179 113.732 275.556V275.384H114.978Z" fill="black"/>
</g>
<g id="Group_41">
<path id="Vector_49" d="M133.103 271.195C133.103 269.993 133.339 268.854 133.79 267.802C134.241 266.749 134.864 265.847 135.659 265.052C136.454 264.257 137.377 263.634 138.451 263.183C139.504 262.732 140.642 262.496 141.845 262.496C143.048 262.496 144.187 262.732 145.239 263.183C146.292 263.634 147.215 264.257 148.01 265.052C148.805 265.847 149.428 266.749 149.879 267.802C150.33 268.854 150.566 269.993 150.566 271.195C150.566 272.398 150.33 273.537 149.879 274.589C149.428 275.642 148.805 276.565 148.01 277.36C147.215 278.133 146.292 278.756 145.239 279.207C144.187 279.659 143.048 279.895 141.845 279.895C140.642 279.895 139.504 279.659 138.451 279.207C137.377 278.756 136.454 278.133 135.659 277.36C134.864 276.565 134.241 275.642 133.79 274.589C133.339 273.537 133.103 272.398 133.103 271.195ZM134.392 271.195C134.392 272.226 134.585 273.193 134.972 274.095C135.38 274.997 135.917 275.792 136.583 276.458C137.248 277.124 138.043 277.661 138.945 278.048C139.848 278.434 140.814 278.628 141.845 278.628C142.855 278.628 143.821 278.434 144.724 278.048C145.626 277.661 146.42 277.124 147.086 276.458C147.752 275.792 148.289 274.997 148.697 274.095C149.084 273.193 149.277 272.226 149.277 271.195C149.277 270.186 149.084 269.219 148.697 268.317C148.289 267.415 147.752 266.62 147.086 265.954C146.42 265.288 145.626 264.751 144.724 264.343C143.821 263.957 142.855 263.763 141.845 263.763C140.814 263.763 139.848 263.957 138.945 264.343C138.043 264.751 137.248 265.288 136.583 265.954C135.917 266.62 135.38 267.415 134.972 268.317C134.585 269.219 134.392 270.186 134.392 271.195Z" fill="black"/>
</g>
<g id="Group_42">
<path id="Vector_50" d="M158.471 279.578V262.824H159.61L171.209 277.409V262.824H172.476V279.578H171.338L159.739 265.015V279.578H158.471Z" fill="black"/>
</g>
</g>
<g id="Group_43">
<g id="Group_44">
<path id="Vector_51" d="M58.5377 332.112H59.805V347.621H69.4925V348.866H58.5377V332.112Z" fill="black"/>
</g>
<g id="Group_45">
<path id="Vector_52" d="M76.8922 332.112H88.4055V333.358H78.1595V340.038H86.8804V341.241H78.1595V347.621H88.4055V348.866H76.8922V332.112Z" fill="black"/>
</g>
<g id="Group_46">
<path id="Vector_53" d="M96.5581 344.672V344.758C96.5581 345.231 96.687 345.66 96.9233 346.047C97.1595 346.455 97.5247 346.799 97.9758 347.078C98.4269 347.357 98.9853 347.594 99.6297 347.765C100.274 347.916 101.004 348.002 101.821 348.002C103.389 348.002 104.57 347.701 105.386 347.121C106.203 346.541 106.611 345.789 106.611 344.887C106.611 344.35 106.482 343.877 106.203 343.491C105.923 343.104 105.537 342.761 105.064 342.481C104.592 342.202 104.033 341.944 103.41 341.708C102.787 341.493 102.121 341.278 101.413 341.064C100.725 340.849 100.038 340.613 99.329 340.355C98.6202 340.118 97.9973 339.796 97.4173 339.431C96.8373 339.066 96.3648 338.615 95.9996 338.099C95.6345 337.562 95.4411 336.918 95.4411 336.166C95.4411 335.5 95.57 334.899 95.8707 334.362C96.15 333.825 96.5366 333.374 97.0521 332.987C97.5677 332.6 98.1906 332.3 98.9424 332.085C99.6727 331.892 100.489 331.784 101.391 331.784C102.315 331.784 103.152 331.892 103.926 332.106C104.699 332.321 105.365 332.622 105.923 333.009C106.46 333.395 106.89 333.846 107.212 334.383C107.513 334.92 107.663 335.5 107.663 336.123V336.317H106.417V336.209C106.417 335.737 106.31 335.307 106.074 334.899C105.837 334.512 105.515 334.169 105.086 333.889C104.635 333.61 104.119 333.374 103.496 333.202C102.852 333.052 102.164 332.966 101.391 332.966C99.8875 332.966 98.7491 333.266 97.9543 333.846C97.1595 334.426 96.7729 335.178 96.7729 336.08C96.7729 336.617 96.9018 337.09 97.181 337.455C97.4388 337.82 97.8039 338.164 98.255 338.443C98.7061 338.722 99.2431 338.98 99.8445 339.195C100.446 339.41 101.09 339.624 101.778 339.839C102.444 340.033 103.152 340.269 103.883 340.505C104.613 340.763 105.279 341.085 105.88 341.472C106.482 341.837 106.976 342.288 107.384 342.825C107.771 343.362 107.964 344.028 107.964 344.823C107.964 345.488 107.814 346.068 107.513 346.605C107.234 347.142 106.826 347.615 106.289 347.98C105.752 348.367 105.107 348.668 104.355 348.861C103.604 349.076 102.744 349.183 101.821 349.183C100.854 349.183 99.9949 349.076 99.1787 348.861C98.4054 348.646 97.718 348.345 97.1381 347.959C96.5581 347.572 96.1285 347.121 95.8063 346.584C95.4841 346.047 95.3123 345.467 95.3123 344.844V344.672H96.5581Z" fill="black"/>
</g>
<g id="Group_47">
<path id="Vector_54" d="M115.961 344.672V344.758C115.961 345.231 116.09 345.66 116.327 346.047C116.563 346.455 116.928 346.799 117.379 347.078C117.83 347.357 118.389 347.594 119.033 347.765C119.677 347.916 120.408 348.002 121.224 348.002C122.792 348.002 123.973 347.701 124.79 347.121C125.606 346.541 126.014 345.789 126.014 344.887C126.014 344.35 125.885 343.877 125.606 343.491C125.327 343.104 124.94 342.761 124.468 342.481C123.995 342.202 123.436 341.944 122.814 341.708C122.191 341.493 121.525 341.278 120.816 341.064C120.129 340.849 119.441 340.613 118.732 340.355C118.024 340.118 117.401 339.796 116.821 339.431C116.241 339.066 115.768 338.615 115.403 338.099C115.038 337.562 114.844 336.918 114.844 336.166C114.844 335.5 114.973 334.899 115.274 334.362C115.553 333.825 115.94 333.374 116.455 332.987C116.971 332.6 117.594 332.3 118.346 332.085C119.076 331.892 119.892 331.784 120.794 331.784C121.718 331.784 122.556 331.892 123.329 332.106C124.102 332.321 124.768 332.622 125.327 333.009C125.864 333.395 126.293 333.846 126.616 334.383C126.916 334.92 127.067 335.5 127.067 336.123V336.317H125.821V336.209C125.821 335.737 125.713 335.307 125.477 334.899C125.241 334.512 124.919 334.169 124.489 333.889C124.038 333.61 123.522 333.374 122.899 333.202C122.255 333.052 121.568 332.966 120.794 332.966C119.291 332.966 118.152 333.266 117.358 333.846C116.563 334.426 116.176 335.178 116.176 336.08C116.176 336.617 116.305 337.09 116.584 337.455C116.842 337.82 117.207 338.164 117.658 338.443C118.109 338.722 118.646 338.98 119.248 339.195C119.849 339.41 120.494 339.624 121.181 339.839C121.847 340.033 122.556 340.269 123.286 340.505C124.016 340.763 124.682 341.085 125.284 341.472C125.885 341.837 126.379 342.288 126.787 342.825C127.174 343.362 127.367 344.028 127.367 344.823C127.367 345.488 127.217 346.068 126.916 346.605C126.637 347.142 126.229 347.615 125.692 347.98C125.155 348.367 124.51 348.668 123.759 348.861C123.007 349.076 122.148 349.183 121.224 349.183C120.257 349.183 119.398 349.076 118.582 348.861C117.809 348.646 117.121 348.345 116.541 347.959C115.961 347.572 115.532 347.121 115.21 346.584C114.887 346.047 114.716 345.467 114.716 344.844V344.672H115.961Z" fill="black"/>
</g>
<g id="Group_48">
<path id="Vector_55" d="M134.086 340.484C134.086 339.281 134.322 338.142 134.773 337.09C135.225 336.037 135.847 335.135 136.642 334.34C137.437 333.546 138.361 332.923 139.435 332.472C140.487 332.021 141.626 331.784 142.828 331.784C144.031 331.784 145.17 332.021 146.222 332.472C147.275 332.923 148.198 333.546 148.993 334.34C149.788 335.135 150.411 336.037 150.862 337.09C151.313 338.142 151.549 339.281 151.549 340.484C151.549 341.687 151.313 342.825 150.862 343.877C150.411 344.93 149.788 345.854 148.993 346.648C148.198 347.422 147.275 348.045 146.222 348.496C145.17 348.947 144.031 349.183 142.828 349.183C141.626 349.183 140.487 348.947 139.435 348.496C138.361 348.045 137.437 347.422 136.642 346.648C135.847 345.854 135.225 344.93 134.773 343.877C134.322 342.825 134.086 341.687 134.086 340.484ZM135.375 340.484C135.375 341.515 135.568 342.481 135.955 343.383C136.363 344.286 136.9 345.08 137.566 345.746C138.232 346.412 139.027 346.949 139.929 347.336C140.831 347.722 141.797 347.916 142.828 347.916C143.838 347.916 144.805 347.722 145.707 347.336C146.609 346.949 147.404 346.412 148.07 345.746C148.735 345.08 149.272 344.286 149.681 343.383C150.067 342.481 150.261 341.515 150.261 340.484C150.261 339.474 150.067 338.507 149.681 337.605C149.272 336.703 148.735 335.908 148.07 335.243C147.404 334.577 146.609 334.04 145.707 333.632C144.805 333.245 143.838 333.052 142.828 333.052C141.797 333.052 140.831 333.245 139.929 333.632C139.027 334.04 138.232 334.577 137.566 335.243C136.9 335.908 136.363 336.703 135.955 337.605C135.568 338.507 135.375 339.474 135.375 340.484Z" fill="black"/>
</g>
<g id="Group_49">
<path id="Vector_56" d="M159.455 348.866V332.112H160.593L172.192 346.697V332.112H173.46V348.866H172.321L160.722 334.303V348.866H159.455Z" fill="black"/>
</g>
</g>
<g id="Group_50">
<g id="Group_51">
<path id="Vector_57" d="M57.5544 406.382H58.8218V421.891H68.5092V423.137H57.5544V406.382Z" fill="black"/>
</g>
<g id="Group_52">
<path id="Vector_58" d="M75.9089 406.382H87.4222V407.628H77.1763V414.308H85.8971V415.511H77.1763V421.891H87.4222V423.137H75.9089V406.382Z" fill="black"/>
</g>
<g id="Group_53">
<path id="Vector_59" d="M95.5748 418.942V419.028C95.5748 419.501 95.7037 419.93 95.94 420.317C96.1763 420.725 96.5414 421.069 96.9925 421.348C97.4436 421.627 98.0021 421.864 98.6465 422.036C99.2909 422.186 100.021 422.272 100.837 422.272C102.405 422.272 103.587 421.971 104.403 421.391C105.219 420.811 105.627 420.059 105.627 419.157C105.627 418.62 105.499 418.148 105.219 417.761C104.94 417.374 104.553 417.031 104.081 416.751C103.608 416.472 103.05 416.214 102.427 415.978C101.804 415.763 101.138 415.549 100.429 415.334C99.7419 415.119 99.0546 414.883 98.3457 414.625C97.6369 414.389 97.014 414.066 96.434 413.701C95.8541 413.336 95.3815 412.885 95.0163 412.37C94.6512 411.833 94.4579 411.188 94.4579 410.436C94.4579 409.77 94.5867 409.169 94.8875 408.632C95.1667 408.095 95.5533 407.644 96.0689 407.257C96.5844 406.871 97.2073 406.57 97.9591 406.355C98.6894 406.162 99.5057 406.054 100.408 406.054C101.331 406.054 102.169 406.162 102.942 406.377C103.716 406.591 104.382 406.892 104.94 407.279C105.477 407.665 105.907 408.116 106.229 408.653C106.53 409.19 106.68 409.77 106.68 410.393V410.587H105.434V410.479C105.434 410.007 105.327 409.577 105.09 409.169C104.854 408.782 104.532 408.439 104.102 408.159C103.651 407.88 103.136 407.644 102.513 407.472C101.868 407.322 101.181 407.236 100.408 407.236C98.9042 407.236 97.7658 407.537 96.971 408.116C96.1763 408.696 95.7896 409.448 95.7896 410.35C95.7896 410.887 95.9185 411.36 96.1977 411.725C96.4555 412.09 96.8207 412.434 97.2717 412.713C97.7228 412.992 98.2598 413.25 98.8613 413.465C99.4627 413.68 100.107 413.895 100.794 414.109C101.46 414.303 102.169 414.539 102.899 414.775C103.63 415.033 104.296 415.355 104.897 415.742C105.499 416.107 105.993 416.558 106.401 417.095C106.787 417.632 106.981 418.298 106.981 419.093C106.981 419.759 106.83 420.339 106.53 420.876C106.25 421.413 105.842 421.885 105.305 422.25C104.768 422.637 104.124 422.938 103.372 423.131C102.62 423.346 101.761 423.453 100.837 423.453C99.8708 423.453 99.0116 423.346 98.1954 423.131C97.4221 422.916 96.7347 422.615 96.1548 422.229C95.5748 421.842 95.1452 421.391 94.823 420.854C94.5008 420.317 94.329 419.737 94.329 419.114V418.942H95.5748Z" fill="black"/>
</g>
<g id="Group_54">
<path id="Vector_60" d="M114.978 418.942V419.028C114.978 419.501 115.107 419.93 115.343 420.317C115.58 420.725 115.945 421.069 116.396 421.348C116.847 421.627 117.405 421.864 118.05 422.036C118.694 422.186 119.425 422.272 120.241 422.272C121.809 422.272 122.99 421.971 123.806 421.391C124.623 420.811 125.031 420.059 125.031 419.157C125.031 418.62 124.902 418.148 124.623 417.761C124.343 417.374 123.957 417.031 123.484 416.751C123.012 416.472 122.453 416.214 121.83 415.978C121.207 415.763 120.541 415.549 119.833 415.334C119.145 415.119 118.458 414.883 117.749 414.625C117.04 414.389 116.417 414.066 115.837 413.701C115.257 413.336 114.785 412.885 114.42 412.37C114.055 411.833 113.861 411.188 113.861 410.436C113.861 409.77 113.99 409.169 114.291 408.632C114.57 408.095 114.957 407.644 115.472 407.257C115.988 406.871 116.611 406.57 117.362 406.355C118.093 406.162 118.909 406.054 119.811 406.054C120.735 406.054 121.573 406.162 122.346 406.377C123.119 406.591 123.785 406.892 124.343 407.279C124.88 407.665 125.31 408.116 125.632 408.653C125.933 409.19 126.083 409.77 126.083 410.393V410.587H124.837V410.479C124.837 410.007 124.73 409.577 124.494 409.169C124.258 408.782 123.935 408.439 123.506 408.159C123.055 407.88 122.539 407.644 121.916 407.472C121.272 407.322 120.584 407.236 119.811 407.236C118.308 407.236 117.169 407.537 116.374 408.116C115.58 408.696 115.193 409.448 115.193 410.35C115.193 410.887 115.322 411.36 115.601 411.725C115.859 412.09 116.224 412.434 116.675 412.713C117.126 412.992 117.663 413.25 118.265 413.465C118.866 413.68 119.51 413.895 120.198 414.109C120.864 414.303 121.573 414.539 122.303 414.775C123.033 415.033 123.699 415.355 124.3 415.742C124.902 416.107 125.396 416.558 125.804 417.095C126.191 417.632 126.384 418.298 126.384 419.093C126.384 419.759 126.234 420.339 125.933 420.876C125.654 421.413 125.246 421.885 124.709 422.25C124.172 422.637 123.527 422.938 122.775 423.131C122.024 423.346 121.164 423.453 120.241 423.453C119.274 423.453 118.415 423.346 117.599 423.131C116.825 422.916 116.138 422.615 115.558 422.229C114.978 421.842 114.549 421.391 114.226 420.854C113.904 420.317 113.732 419.737 113.732 419.114V418.942H114.978Z" fill="black"/>
</g>
<g id="Group_55">
<path id="Vector_61" d="M133.103 414.754C133.103 413.551 133.339 412.412 133.79 411.36C134.241 410.307 134.864 409.405 135.659 408.611C136.454 407.816 137.377 407.193 138.451 406.742C139.504 406.291 140.642 406.054 141.845 406.054C143.048 406.054 144.187 406.291 145.239 406.742C146.292 407.193 147.215 407.816 148.01 408.611C148.805 409.405 149.428 410.307 149.879 411.36C150.33 412.412 150.566 413.551 150.566 414.754C150.566 415.957 150.33 417.095 149.879 418.148C149.428 419.2 148.805 420.124 148.01 420.919C147.215 421.692 146.292 422.315 145.239 422.766C144.187 423.217 143.048 423.453 141.845 423.453C140.642 423.453 139.504 423.217 138.451 422.766C137.377 422.315 136.454 421.692 135.659 420.919C134.864 420.124 134.241 419.2 133.79 418.148C133.339 417.095 133.103 415.957 133.103 414.754ZM134.392 414.754C134.392 415.785 134.585 416.751 134.972 417.654C135.38 418.556 135.917 419.351 136.583 420.016C137.248 420.682 138.043 421.219 138.945 421.606C139.848 421.993 140.814 422.186 141.845 422.186C142.855 422.186 143.821 421.993 144.724 421.606C145.626 421.219 146.42 420.682 147.086 420.016C147.752 419.351 148.289 418.556 148.697 417.654C149.084 416.751 149.277 415.785 149.277 414.754C149.277 413.744 149.084 412.778 148.697 411.875C148.289 410.973 147.752 410.179 147.086 409.513C146.42 408.847 145.626 408.31 144.724 407.902C143.821 407.515 142.855 407.322 141.845 407.322C140.814 407.322 139.848 407.515 138.945 407.902C138.043 408.31 137.248 408.847 136.583 409.513C135.917 410.179 135.38 410.973 134.972 411.875C134.585 412.778 134.392 413.744 134.392 414.754Z" fill="black"/>
</g>
<g id="Group_56">
<path id="Vector_62" d="M158.471 423.137V406.382H159.61L171.209 420.967V406.382H172.476V423.137H171.338L159.739 408.573V423.137H158.471Z" fill="black"/>
</g>
</g>
<g id="Group_57">
<g id="Group_58">
<path id="Vector_63" d="M63.0284 493.934V494.02C63.0284 494.492 63.1573 494.922 63.3935 495.308C63.6298 495.716 63.995 496.06 64.4461 496.339C64.8971 496.619 65.4556 496.855 66.1 497.027C66.7444 497.177 67.4747 497.263 68.291 497.263C69.859 497.263 71.0404 496.962 71.8567 496.382C72.6729 495.802 73.081 495.051 73.081 494.148C73.081 493.611 72.9521 493.139 72.6729 492.752C72.3936 492.366 72.007 492.022 71.5345 491.743C71.0619 491.463 70.5034 491.206 69.8805 490.969C69.2576 490.755 68.5917 490.54 67.8829 490.325C67.1955 490.11 66.5081 489.874 65.7993 489.616C65.0905 489.38 64.4675 489.058 63.8876 488.692C63.3076 488.327 62.8351 487.876 62.4699 487.361C62.1047 486.824 61.9114 486.179 61.9114 485.428C61.9114 484.762 62.0403 484.16 62.341 483.623C62.6203 483.086 63.0069 482.635 63.5224 482.248C64.0379 481.862 64.6609 481.561 65.4127 481.346C66.143 481.153 66.9592 481.046 67.8614 481.046C68.785 481.046 69.6227 481.153 70.396 481.368C71.1693 481.583 71.8352 481.883 72.3936 482.27C72.9306 482.657 73.3602 483.108 73.6824 483.645C73.9832 484.182 74.1335 484.762 74.1335 485.385V485.578H72.8877V485.47C72.8877 484.998 72.7803 484.568 72.544 484.16C72.3077 483.774 71.9855 483.43 71.5559 483.151C71.1049 482.871 70.5893 482.635 69.9664 482.463C69.322 482.313 68.6347 482.227 67.8614 482.227C66.3578 482.227 65.2193 482.528 64.4246 483.108C63.6298 483.688 63.2432 484.439 63.2432 485.342C63.2432 485.879 63.3721 486.351 63.6513 486.716C63.9091 487.081 64.2742 487.425 64.7253 487.704C65.1764 487.984 65.7134 488.241 66.3148 488.456C66.9163 488.671 67.5607 488.886 68.248 489.101C68.9139 489.294 69.6227 489.53 70.3531 489.766C71.0834 490.024 71.7493 490.346 72.3507 490.733C72.9521 491.098 73.4462 491.549 73.8543 492.086C74.2409 492.623 74.4343 493.289 74.4343 494.084C74.4343 494.75 74.2839 495.33 73.9832 495.867C73.7039 496.404 73.2958 496.876 72.7588 497.242C72.2218 497.628 71.5774 497.929 70.8256 498.122C70.0738 498.337 69.2146 498.444 68.291 498.444C67.3244 498.444 66.4652 498.337 65.6489 498.122C64.8757 497.907 64.1883 497.607 63.6083 497.22C63.0284 496.833 62.5988 496.382 62.2766 495.845C61.9544 495.308 61.7825 494.728 61.7825 494.105V493.934H63.0284Z" fill="black"/>
</g>
<g id="Group_59">
<path id="Vector_64" d="M82.333 481.373H88.7985C89.7651 481.373 90.6458 481.524 91.419 481.846C92.1708 482.147 92.8152 482.555 93.3522 483.092C93.8678 483.629 94.2544 484.23 94.5336 484.939C94.8129 485.648 94.9418 486.378 94.9418 487.151C94.9418 487.903 94.8129 488.634 94.5336 489.342C94.2544 490.03 93.8678 490.631 93.3522 491.168C92.8152 491.705 92.1708 492.113 91.419 492.436C90.6458 492.758 89.7651 492.908 88.7985 492.908H83.6003V498.128H82.333V481.373ZM83.6003 482.576V491.705H88.7555C89.5288 491.705 90.2162 491.576 90.8176 491.319C91.4405 491.082 91.956 490.739 92.3856 490.309C92.7938 489.901 93.116 489.407 93.3308 488.848C93.5456 488.311 93.653 487.731 93.653 487.151C93.653 486.529 93.5456 485.949 93.3308 485.39C93.116 484.853 92.7938 484.359 92.3856 483.929C91.956 483.521 91.4405 483.178 90.8176 482.941C90.2162 482.705 89.5288 482.576 88.7555 482.576H83.6003Z" fill="black"/>
</g>
<g id="Group_60">
<path id="Vector_65" d="M109.978 481.373C110.88 481.373 111.696 481.524 112.405 481.803C113.114 482.082 113.694 482.469 114.188 482.963C114.682 483.457 115.047 484.037 115.305 484.703C115.562 485.347 115.691 486.035 115.691 486.765C115.691 487.345 115.605 487.925 115.434 488.462C115.262 488.999 115.025 489.514 114.703 489.965C114.381 490.416 113.973 490.825 113.5 491.147C113.028 491.49 112.491 491.748 111.868 491.942L116.271 498.128H114.725L110.493 492.178C110.407 492.199 110.321 492.199 110.235 492.199H103.856V498.128H102.588V481.373H109.978ZM103.856 482.576V490.996H109.935C110.665 490.996 111.309 490.889 111.868 490.653C112.426 490.416 112.899 490.116 113.286 489.729C113.672 489.342 113.973 488.891 114.166 488.376C114.36 487.882 114.445 487.345 114.445 486.786C114.445 486.228 114.36 485.691 114.166 485.175C113.973 484.681 113.672 484.23 113.286 483.844C112.899 483.457 112.426 483.156 111.868 482.92C111.309 482.684 110.665 482.576 109.935 482.576H103.856Z" fill="black"/>
</g>
<g id="Group_61">
<path id="Vector_66" d="M125.193 481.373H123.926V498.128H125.193V481.373Z" fill="black"/>
</g>
<g id="Group_62">
<path id="Vector_67" d="M134.283 498.128V481.373H135.421L147.02 495.958V481.373H148.288V498.128H147.149L135.55 483.564V498.128H134.283Z" fill="black"/>
</g>
<g id="Group_63">
<path id="Vector_68" d="M155.554 481.373H168.915V482.619H162.858V498.128H161.59V482.619H155.554V481.373Z" fill="black"/>
</g>
</g>
</g>
</g>
</svg>
